<svg width="72" height="72" viewBox="0 0 72 72" fill="none" xmlns="http://www.w3.org/2000/svg">
<g clip-path="url(#clip0_5091_1774)">
<mask id="mask0_5091_1774" style="mask-type:luminance" maskUnits="userSpaceOnUse" x="0" y="0" width="72" height="72">
<path d="M72 0H0V72H72V0Z" fill="white"/>
</mask>
<g mask="url(#mask0_5091_1774)">
<mask id="mask1_5091_1774" style="mask-type:luminance" maskUnits="userSpaceOnUse" x="0" y="0" width="72" height="72">
<path d="M0.25 0.25H71.75V71.75H0.25V0.25Z" fill="white"/>
</mask>
<g mask="url(#mask1_5091_1774)">
<path d="M8.28669 63.9578C8.45194 64.6745 8.8984 65.3086 9.59065 65.5571C11.8876 66.3821 16.5756 66.9795 24.5026 65.7805C35.849 64.0646 49.9319 60.024 55.1382 55.0311C55.7307 54.4628 55.907 53.6098 55.7225 52.8098L54.1112 45.8215C41.461 49.2126 14.8 58.5157 6.52075 56.2989L8.28669 63.9578Z" fill="url(#paint0_linear_5091_1774)"/>
<path d="M6.62037 56.7308C7.33448 59.8279 18.5425 59.8876 31.6544 56.8644C44.7661 53.8412 54.8164 48.8798 54.1023 45.7827C53.3882 42.6857 42.1801 42.6259 29.0685 45.6491C15.9566 48.6723 5.90628 53.6338 6.62037 56.7308Z" fill="url(#paint1_linear_5091_1774)"/>
<path d="M16.0665 49.5774L16.1414 49.9023C16.2869 50.5332 16.644 51.1043 17.2101 51.4182C23.2711 54.7801 35.418 53.0906 47.805 49.2859C49.5122 48.7615 52.0239 47.6295 53.428 47.0655C53.9212 46.4678 54.1309 45.9081 54.0152 45.406C53.3491 42.5171 42.1799 42.6259 29.0681 45.6492C24.1806 46.7761 19.7135 48.1489 16.0665 49.5774Z" fill="url(#paint2_linear_5091_1774)"/>
<path d="M16.9299 35.6245C16.8926 36.3918 17.1758 37.1514 17.8186 37.5722C19.8397 38.8956 24.1854 40.6061 32.0517 41.5543C43.3949 42.9214 57.9722 42.9167 64.3676 39.8113C65.1348 39.4388 65.5689 38.6399 65.6103 37.788L65.928 31.2491C52.8338 31.0445 24.6577 32.5476 17.2793 28.4342L16.9299 35.6245Z" fill="url(#paint3_linear_5091_1774)"/>
<path d="M17.2595 28.8467C17.1156 31.808 27.8941 34.7381 41.334 35.3911C54.774 36.0442 65.7859 34.173 65.9298 31.2116C66.0737 28.2503 55.2951 25.32 41.8551 24.6669C28.4152 24.0139 17.4034 25.8854 17.2595 28.8467Z" fill="url(#paint4_linear_5091_1774)"/>
<path d="M17.2595 28.8466C17.2345 29.3612 17.54 29.8748 18.1313 30.3757C19.6131 30.6822 22.2856 31.3513 24.0585 31.565C36.9237 33.1155 49.178 32.6269 54.5476 28.2446C55.0491 27.8354 55.2994 27.21 55.3308 26.5634L55.347 26.2304C51.5047 25.4704 46.865 24.9104 41.8551 24.6669C28.4152 24.0139 17.4034 25.8852 17.2595 28.8466Z" fill="url(#paint5_linear_5091_1774)"/>
<path d="M6.76921 13.7147L7.70369 20.8908C7.8169 21.7601 8.34042 22.5301 9.16151 22.8372C11.8161 23.83 17.0603 24.978 24.9847 24.517C37.9213 23.7646 50.9981 21.3203 55.5067 16.0564C55.9278 15.5647 56.0634 14.9051 55.9798 14.2632L55.0517 7.13614C42.1283 9.25382 14.7596 16.4561 6.76921 13.7147Z" fill="url(#paint6_linear_5091_1774)"/>
<path d="M6.7645 13.6776C7.14736 16.6177 18.2745 17.5924 31.6176 15.8548C44.9607 14.1173 55.4671 10.3254 55.0843 7.38535C54.7014 4.44534 43.5743 3.47059 30.2312 5.20816C16.888 6.94573 6.38165 10.7376 6.7645 13.6776Z" fill="url(#paint7_linear_5091_1774)"/>
<path d="M32.93 27.9485L24.3975 36.8956C22.1486 39.2538 23.8954 43.0475 27.2302 43.0475C28.308 43.0475 29.3361 42.6134 30.063 41.8512L34.8189 36.8642C35.1932 36.4717 35.8388 36.4717 36.2132 36.8642L40.9551 41.8366C41.6908 42.6081 42.7313 43.0475 43.8221 43.0475C47.1972 43.0475 48.9652 39.2081 46.6891 36.8215L38.2272 27.9485C37.5161 27.2028 36.5473 26.8299 35.5787 26.8299C34.6099 26.8299 33.6412 27.2028 32.93 27.9485Z" fill="url(#paint8_linear_5091_1774)"/>
<g opacity="0.5">
<path d="M32.93 40.0085L24.3975 48.9555C22.1486 51.3137 23.8954 55.1074 27.2302 55.1074C28.308 55.1074 29.3361 54.6733 30.063 53.9111L34.8189 48.9241C35.1932 48.5317 35.8388 48.5317 36.2132 48.9241L40.9551 53.8966C41.6908 54.668 42.7313 55.1074 43.8221 55.1074C47.1972 55.1074 48.9652 51.268 46.6891 48.8814L38.2272 40.0085C37.5161 39.2627 36.5473 38.8898 35.5787 38.8898C34.6099 38.8898 33.6412 39.2627 32.93 40.0085Z" fill="url(#paint9_linear_5091_1774)" fill-opacity="0.389655"/>
</g>
<path d="M32.93 53.3362L24.3975 62.2833C22.1486 64.6414 23.8954 68.4352 27.2302 68.4352C28.308 68.4352 29.3361 68.0011 30.063 67.2388L34.8189 62.2519C35.1932 61.8594 35.8388 61.8594 36.2132 62.2519L40.9551 67.2243C41.6908 67.9957 42.7313 68.4352 43.8221 68.4352C47.1972 68.4352 48.9652 64.5958 46.6891 62.2092L38.2272 53.3362C37.5161 52.5905 36.5473 52.2176 35.5787 52.2176C34.6099 52.2176 33.6412 52.5905 32.93 53.3362Z" fill="url(#paint10_linear_5091_1774)" fill-opacity="0.344205"/>
</g>
</g>
</g>
<defs>
<linearGradient id="paint0_linear_5091_1774" x1="46.6499" y1="47.9383" x2="12.1754" y2="67.7019" gradientUnits="userSpaceOnUse">
<stop stop-color="#EC7A01"/>
<stop offset="0.25" stop-color="#EE8306"/>
<stop offset="0.5" stop-color="#F18C0A"/>
<stop offset="0.75" stop-color="#D27C0B"/>
<stop offset="1" stop-color="#B46D0C"/>
</linearGradient>
<linearGradient id="paint1_linear_5091_1774" x1="29.0823" y1="45.7212" x2="31.5487" y2="56.8805" gradientUnits="userSpaceOnUse">
<stop stop-color="#FFB12C"/>
<stop offset="0.25" stop-color="#F69516"/>
<stop offset="0.5" stop-color="#EC7A01"/>
<stop offset="0.75" stop-color="#F69516"/>
<stop offset="1" stop-color="#FFB12C"/>
</linearGradient>
<linearGradient id="paint2_linear_5091_1774" x1="54.0674" y1="45.8686" x2="16.0568" y2="49.5976" gradientUnits="userSpaceOnUse">
<stop stop-opacity="0"/>
<stop offset="0.5" stop-opacity="0.0104699"/>
<stop offset="1" stop-opacity="0.0209397"/>
</linearGradient>
<linearGradient id="paint3_linear_5091_1774" x1="58.1937" y1="30.8151" x2="19.6463" y2="40.4683" gradientUnits="userSpaceOnUse">
<stop stop-color="#EC7A01"/>
<stop offset="0.25" stop-color="#EE8306"/>
<stop offset="0.5" stop-color="#F18C0A"/>
<stop offset="0.75" stop-color="#D27C0B"/>
<stop offset="1" stop-color="#B46D0C"/>
</linearGradient>
<linearGradient id="paint4_linear_5091_1774" x1="41.8678" y1="24.3543" x2="41.2093" y2="35.7638" gradientUnits="userSpaceOnUse">
<stop stop-color="#FFB12C"/>
<stop offset="0.25" stop-color="#F69516"/>
<stop offset="0.5" stop-color="#EC7A01"/>
<stop offset="0.75" stop-color="#F69516"/>
<stop offset="1" stop-color="#FFB12C"/>
</linearGradient>
<linearGradient id="paint5_linear_5091_1774" x1="17.4186" y1="29.3443" x2="55.1717" y2="26.2552" gradientUnits="userSpaceOnUse">
<stop stop-opacity="0"/>
<stop offset="0.5" stop-opacity="0.0104699"/>
<stop offset="1" stop-opacity="0.0209397"/>
</linearGradient>
<linearGradient id="paint6_linear_5091_1774" x1="47.4904" y1="9.05823" x2="11.262" y2="25.3858" gradientUnits="userSpaceOnUse">
<stop stop-color="#EC7A01"/>
<stop offset="0.25" stop-color="#EE8306"/>
<stop offset="0.5" stop-color="#F18C0A"/>
<stop offset="0.75" stop-color="#D27C0B"/>
<stop offset="1" stop-color="#B46D0C"/>
</linearGradient>
<linearGradient id="paint7_linear_5091_1774" x1="30.1882" y1="4.89805" x2="31.5609" y2="16.2439" gradientUnits="userSpaceOnUse">
<stop stop-color="#FFB12C"/>
<stop offset="0.25" stop-color="#F69516"/>
<stop offset="0.5" stop-color="#EC7A01"/>
<stop offset="0.75" stop-color="#F69516"/>
<stop offset="1" stop-color="#FFB12C"/>
</linearGradient>
<linearGradient id="paint8_linear_5091_1774" x1="26.5926" y1="34.1871" x2="43.651" y2="38.0464" gradientUnits="userSpaceOnUse">
<stop stop-color="#4C8B0C"/>
<stop offset="0.5" stop-color="#66A40B"/>
<stop offset="1" stop-color="#80BE0B"/>
</linearGradient>
<linearGradient id="paint9_linear_5091_1774" x1="26.5926" y1="46.2471" x2="43.651" y2="50.1063" gradientUnits="userSpaceOnUse">
<stop stop-color="#4C8B0C"/>
<stop offset="0.5" stop-color="#66A40B"/>
<stop offset="1" stop-color="#80BE0B"/>
</linearGradient>
<linearGradient id="paint10_linear_5091_1774" x1="26.5926" y1="59.5748" x2="43.651" y2="63.4341" gradientUnits="userSpaceOnUse">
<stop stop-color="#4C8B0C"/>
<stop offset="0.5" stop-color="#66A40B"/>
<stop offset="1" stop-color="#80BE0B"/>
</linearGradient>
<clipPath id="clip0_5091_1774">
<rect width="72" height="72" fill="white"/>
</clipPath>
</defs>
</svg>
