<svg width="72" height="72" viewBox="0 0 72 72" fill="none" xmlns="http://www.w3.org/2000/svg">
<g clip-path="url(#clip0_5091_1630)">
<mask id="mask0_5091_1630" style="mask-type:luminance" maskUnits="userSpaceOnUse" x="0" y="0" width="72" height="72">
<path d="M72 0H0V72H72V0Z" fill="white"/>
</mask>
<g mask="url(#mask0_5091_1630)">
<mask id="mask1_5091_1630" style="mask-type:luminance" maskUnits="userSpaceOnUse" x="0" y="0" width="72" height="72">
<path d="M0.25 0.25H71.75V71.75H0.25V0.25Z" fill="white"/>
</mask>
<g mask="url(#mask1_5091_1630)">
<path d="M7.46997 61.4568C7.61498 62.1884 8.0476 62.8452 8.74148 63.1188C11.0438 64.0271 15.7768 64.7798 23.8492 63.8133C35.4038 62.4301 49.8051 58.7766 55.239 53.8792C55.8573 53.3218 56.0628 52.4628 55.9009 51.6461L54.487 44.5122C41.5584 47.5523 14.2426 56.1452 5.92041 53.6383L7.46997 61.4568Z" fill="url(#paint0_linear_5091_1630)"/>
<path d="M6.00784 54.0792C6.63446 57.2409 17.9931 57.6532 31.3782 55.0004C44.7631 52.3476 55.1058 47.6342 54.4792 44.4725C53.8526 41.311 42.494 40.8986 29.1091 43.5514C15.724 46.2042 5.38125 50.9177 6.00784 54.0792Z" fill="url(#paint1_linear_5091_1630)"/>
<path d="M15.8069 47.125L15.8727 47.4567C16.0003 48.1007 16.3443 48.6908 16.9082 49.0268C22.9462 52.6246 35.3114 51.2934 47.9863 47.8258C49.7332 47.3478 52.3146 46.2792 53.7554 45.7516C54.2741 45.1613 54.5043 44.6005 54.4027 44.088C53.8182 41.1389 42.4937 40.8986 29.1087 43.5514C24.1193 44.5403 19.5484 45.7916 15.8069 47.125Z" fill="url(#paint2_linear_5091_1630)"/>
<path d="M16.6819 34.983C16.6493 35.7614 16.9416 36.5297 17.5962 36.9521C19.6548 38.2804 24.0732 39.9856 32.0565 40.8939C43.5685 42.2035 58.3508 42.1 64.8151 38.9078C65.5906 38.5248 66.0254 37.7117 66.0616 36.8475L66.3395 30.2145C53.0597 30.0956 24.4975 31.8105 16.9875 27.6892L16.6819 34.983Z" fill="url(#paint3_linear_5091_1630)"/>
<path d="M16.9703 28.1077C16.8444 31.1116 27.7944 34.0099 41.4277 34.5812C55.0612 35.1525 66.2153 33.1805 66.3412 30.1765C66.467 27.1726 55.5171 24.274 41.8835 23.7027C28.2503 23.1314 17.0962 25.1037 16.9703 28.1077Z" fill="url(#paint4_linear_5091_1630)"/>
<path d="M16.9703 28.1075C16.9484 28.6295 17.2617 29.1483 17.8648 29.6523C19.3694 29.953 22.0841 30.6135 23.8834 30.8182C36.94 32.3035 49.3633 31.725 54.7788 27.2448C55.2846 26.8264 55.5342 26.1906 55.5617 25.5346L55.5758 25.1968C51.6743 24.4522 46.9656 23.9157 41.8835 23.7027C28.2503 23.1314 17.0962 25.1036 16.9703 28.1075Z" fill="url(#paint5_linear_5091_1630)"/>
<path d="M6.3288 13.2382L7.14758 20.531C7.24677 21.4144 7.76377 22.2045 8.59079 22.5307C11.2645 23.5849 16.5612 24.843 24.6042 24.5177C37.7345 23.9869 51.0373 21.7431 55.7031 16.4868C56.1389 15.9958 56.2882 15.3293 56.215 14.677L55.4018 7.43405C42.2604 9.34941 14.3813 16.1611 6.3288 13.2382Z" fill="url(#paint6_linear_5091_1630)"/>
<path d="M6.32467 13.2005C6.66012 16.1883 17.9247 17.3763 31.4849 15.8538C45.045 14.3314 55.7658 10.6751 55.4303 7.68731C55.0949 4.69948 43.8303 3.51156 30.2701 5.03399C16.71 6.55642 5.98922 10.2127 6.32467 13.2005Z" fill="url(#paint7_linear_5091_1630)"/>
<path d="M32.887 31.3573L24.2342 40.4304C21.9536 42.8218 23.7251 46.669 27.1069 46.669C28.1998 46.669 29.2424 46.2287 29.9796 45.4558L34.8025 40.3985C35.182 40.0005 35.8367 40.0005 36.2164 40.3985L41.0251 45.441C41.7711 46.2233 42.8263 46.669 43.9325 46.669C47.3551 46.669 49.148 42.7754 46.8399 40.3552L38.2588 31.3573C37.5376 30.601 36.5552 30.2229 35.5729 30.2229C34.5905 30.2229 33.6082 30.601 32.887 31.3573Z" fill="url(#paint8_linear_5091_1630)"/>
<g opacity="0.5">
<path d="M32.887 40.0649L24.2342 49.138C21.9536 51.5294 23.7251 55.3766 27.1069 55.3766C28.1998 55.3766 29.2424 54.9364 29.9796 54.1634L34.8025 49.1062C35.182 48.7082 35.8367 48.7082 36.2164 49.1062L41.0251 54.1487C41.7711 54.931 42.8263 55.3766 43.9325 55.3766C47.3551 55.3766 49.148 51.4831 46.8399 49.0629L38.2588 40.0649C37.5376 39.3087 36.5552 38.9306 35.5729 38.9306C34.5905 38.9306 33.6082 39.3087 32.887 40.0649Z" fill="url(#paint9_linear_5091_1630)" fill-opacity="0.444828"/>
</g>
<path d="M32.887 53.5804L24.2342 62.6535C21.9536 65.0449 23.7251 68.8921 27.1069 68.8921C28.1998 68.8921 29.2424 68.4519 29.9796 67.6789L34.8025 62.6217C35.182 62.2237 35.8367 62.2237 36.2164 62.6217L41.0251 67.6642C41.7711 68.4465 42.8263 68.8921 43.9325 68.8921C47.3551 68.8921 49.148 64.9986 46.8399 62.5784L38.2588 53.5804C37.5376 52.8242 36.5552 52.4461 35.5729 52.4461C34.5905 52.4461 33.6082 52.8242 32.887 53.5804Z" fill="url(#paint10_linear_5091_1630)" fill-opacity="0.38441"/>
</g>
</g>
</g>
<defs>
<linearGradient id="paint0_linear_5091_1630" x1="46.8577" y1="46.4235" x2="11.2941" y2="65.3739" gradientUnits="userSpaceOnUse">
<stop stop-color="#EC7A01"/>
<stop offset="0.25" stop-color="#EE8306"/>
<stop offset="0.5" stop-color="#F18C0A"/>
<stop offset="0.75" stop-color="#D27C0B"/>
<stop offset="1" stop-color="#B46D0C"/>
</linearGradient>
<linearGradient id="paint1_linear_5091_1630" x1="29.1209" y1="43.6249" x2="31.2705" y2="55.0134" gradientUnits="userSpaceOnUse">
<stop stop-color="#FFB12C"/>
<stop offset="0.25" stop-color="#F69516"/>
<stop offset="0.5" stop-color="#EC7A01"/>
<stop offset="0.75" stop-color="#F69516"/>
<stop offset="1" stop-color="#FFB12C"/>
</linearGradient>
<linearGradient id="paint2_linear_5091_1630" x1="54.4411" y1="44.5586" x2="15.7964" y2="47.1452" gradientUnits="userSpaceOnUse">
<stop stop-opacity="0"/>
<stop offset="0.5" stop-opacity="0.0247524"/>
<stop offset="1" stop-opacity="0.0495048"/>
</linearGradient>
<linearGradient id="paint3_linear_5091_1630" x1="58.4935" y1="29.8267" x2="19.4692" y2="39.8765" gradientUnits="userSpaceOnUse">
<stop stop-color="#EC7A01"/>
<stop offset="0.25" stop-color="#EE8306"/>
<stop offset="0.5" stop-color="#F18C0A"/>
<stop offset="0.75" stop-color="#D27C0B"/>
<stop offset="1" stop-color="#B46D0C"/>
</linearGradient>
<linearGradient id="paint4_linear_5091_1630" x1="41.8943" y1="23.3855" x2="41.3038" y2="34.96" gradientUnits="userSpaceOnUse">
<stop stop-color="#FFB12C"/>
<stop offset="0.25" stop-color="#F69516"/>
<stop offset="0.5" stop-color="#EC7A01"/>
<stop offset="0.75" stop-color="#F69516"/>
<stop offset="1" stop-color="#FFB12C"/>
</linearGradient>
<linearGradient id="paint5_linear_5091_1630" x1="17.135" y1="28.6111" x2="55.3983" y2="25.2232" gradientUnits="userSpaceOnUse">
<stop stop-opacity="0"/>
<stop offset="0.5" stop-opacity="0.0247524"/>
<stop offset="1" stop-opacity="0.0495048"/>
</linearGradient>
<linearGradient id="paint6_linear_5091_1630" x1="47.7007" y1="9.24728" x2="10.6749" y2="25.1525" gradientUnits="userSpaceOnUse">
<stop stop-color="#EC7A01"/>
<stop offset="0.25" stop-color="#EE8306"/>
<stop offset="0.5" stop-color="#F18C0A"/>
<stop offset="0.75" stop-color="#D27C0B"/>
<stop offset="1" stop-color="#B46D0C"/>
</linearGradient>
<linearGradient id="paint7_linear_5091_1630" x1="30.2321" y1="4.71879" x2="31.4204" y2="16.2473" gradientUnits="userSpaceOnUse">
<stop stop-color="#FFB12C"/>
<stop offset="0.25" stop-color="#F69516"/>
<stop offset="0.5" stop-color="#EC7A01"/>
<stop offset="0.75" stop-color="#F69516"/>
<stop offset="1" stop-color="#FFB12C"/>
</linearGradient>
<linearGradient id="paint8_linear_5091_1630" x1="26.4602" y1="37.6838" x2="43.759" y2="41.5974" gradientUnits="userSpaceOnUse">
<stop stop-color="#4C8B0C"/>
<stop offset="0.5" stop-color="#66A40B"/>
<stop offset="1" stop-color="#80BE0B"/>
</linearGradient>
<linearGradient id="paint9_linear_5091_1630" x1="26.4602" y1="46.3914" x2="43.759" y2="50.305" gradientUnits="userSpaceOnUse">
<stop stop-color="#4C8B0C"/>
<stop offset="0.5" stop-color="#66A40B"/>
<stop offset="1" stop-color="#80BE0B"/>
</linearGradient>
<linearGradient id="paint10_linear_5091_1630" x1="26.4602" y1="59.9069" x2="43.759" y2="63.8205" gradientUnits="userSpaceOnUse">
<stop stop-color="#4C8B0C"/>
<stop offset="0.5" stop-color="#66A40B"/>
<stop offset="1" stop-color="#80BE0B"/>
</linearGradient>
<clipPath id="clip0_5091_1630">
<rect width="72" height="72" fill="white"/>
</clipPath>
</defs>
</svg>
