<svg width="72" height="72" viewBox="0 0 72 72" fill="none" xmlns="http://www.w3.org/2000/svg">
<g clip-path="url(#clip0_5091_1582)">
<mask id="mask0_5091_1582" style="mask-type:luminance" maskUnits="userSpaceOnUse" x="0" y="0" width="72" height="72">
<path d="M72 0H0V72H72V0Z" fill="white"/>
</mask>
<g mask="url(#mask0_5091_1582)">
<mask id="mask1_5091_1582" style="mask-type:luminance" maskUnits="userSpaceOnUse" x="0" y="0" width="72" height="72">
<path d="M0.25 0.25H71.75V71.75H0.25V0.25Z" fill="white"/>
</mask>
<g mask="url(#mask1_5091_1582)">
<path d="M6.8794 59.5253C7.00877 60.2678 7.43046 60.9414 8.12502 61.234C10.4296 62.2054 15.1933 63.0764 23.3708 62.2888C35.0757 61.1617 49.7095 57.8076 55.3133 52.9873C55.951 52.4386 56.1786 51.5756 56.0342 50.7468L54.7727 43.507C41.641 46.2758 13.8454 54.3177 5.49683 51.5907L6.8794 59.5253Z" fill="url(#paint0_linear_5091_1582)"/>
<path d="M5.57478 52.0381C6.13387 55.2467 17.5988 55.9288 31.1827 53.5619C44.7662 51.195 55.3248 46.6754 54.7657 43.4668C54.2066 40.2583 42.7416 39.5761 29.1581 41.943C15.5743 44.3099 5.01572 48.8297 5.57478 52.0381Z" fill="url(#paint1_linear_5091_1582)"/>
<path d="M15.6365 45.2421L15.6952 45.5787C15.8091 46.2322 16.1428 46.8364 16.7046 47.189C22.7201 50.9648 35.2427 49.909 48.1281 46.7024C49.904 46.2604 52.5367 45.2412 54.0046 44.742C54.5423 44.1578 54.788 43.5966 54.6974 43.0765C54.1759 40.0836 42.7414 39.5761 29.1577 41.943C24.0942 42.8253 19.4474 43.9825 15.6365 45.2421Z" fill="url(#paint2_linear_5091_1582)"/>
<path d="M16.4955 34.4909C16.4665 35.2776 16.7657 36.0525 17.4294 36.476C19.5162 37.8078 23.9895 39.5084 32.061 40.3857C43.7001 41.6507 58.6366 41.4711 65.1525 38.2127C65.9341 37.8218 66.3693 36.9979 66.4015 36.1245L66.6488 29.4207C53.2293 29.3679 24.3768 31.2456 16.7673 27.1192L16.4955 34.4909Z" fill="url(#paint3_linear_5091_1582)"/>
<path d="M16.7521 27.5421C16.6401 30.5782 27.7195 33.4513 41.4983 33.9594C55.2774 34.4676 66.5383 32.4184 66.6503 29.3823C66.7622 26.3463 55.6829 23.4729 41.9038 22.9647C28.1249 22.4566 16.8641 24.5061 16.7521 27.5421Z" fill="url(#paint4_linear_5091_1582)"/>
<path d="M16.7521 27.542C16.7326 28.0696 17.0518 28.5922 17.6637 29.0984C19.1857 29.3946 21.9321 30.0483 23.7513 30.246C36.9521 31.6806 49.5026 31.0331 54.952 26.4785C55.461 26.0532 55.7099 25.4094 55.7344 24.7465L55.747 24.405C51.8008 23.6724 47.0402 23.1542 41.9038 22.9647C28.1249 22.4566 16.8641 24.506 16.7521 27.542Z" fill="url(#paint5_linear_5091_1582)"/>
<path d="M6.0069 12.8733L6.73674 20.2529C6.82515 21.1468 7.33697 21.952 8.16822 22.2926C10.8556 23.3935 16.1906 24.7355 24.3215 24.5143C37.5953 24.1534 51.0664 22.064 55.8509 16.8154C56.2978 16.3252 56.4576 15.6538 56.3923 14.9937L55.6674 7.66462C42.3639 9.42429 14.104 15.9342 6.0069 12.8733Z" fill="url(#paint6_linear_5091_1582)"/>
<path d="M6.00308 12.8352C6.30209 15.8586 17.6679 17.2094 31.3893 15.8523C45.1107 14.4953 55.9918 10.9443 55.6927 7.92089C55.3937 4.89753 44.0279 3.54675 30.3065 4.9038C16.5851 6.26086 5.70406 9.81187 6.00308 12.8352Z" fill="url(#paint7_linear_5091_1582)"/>
<path d="M32.8544 33.9733L24.111 43.1415C21.8064 45.558 23.5964 49.4455 27.0137 49.4455C28.1181 49.4455 29.1716 49.0006 29.9165 48.2196L34.7899 43.1093C35.1735 42.7072 35.835 42.7072 36.2187 43.1093L41.0778 48.2047C41.8316 48.9952 42.8979 49.4455 44.0157 49.4455C47.4742 49.4455 49.2859 45.5112 46.9536 43.0656L38.2825 33.9733C37.5538 33.2091 36.5611 32.8271 35.5685 32.8271C34.5758 32.8271 33.5832 33.2091 32.8544 33.9733Z" fill="url(#paint8_linear_5091_1582)"/>
<g opacity="0.5">
<path d="M32.8544 40.1075L24.111 49.2757C21.8064 51.6922 23.5964 55.5797 27.0137 55.5797C28.1181 55.5797 29.1716 55.1348 29.9165 54.3538L34.7899 49.2435C35.1735 48.8414 35.835 48.8414 36.2187 49.2435L41.0778 54.3389C41.8316 55.1294 42.8979 55.5797 44.0157 55.5797C47.4742 55.5797 49.2859 51.6454 46.9536 49.1998L38.2825 40.1075C37.5538 39.3434 36.5611 38.9613 35.5685 38.9613C34.5758 38.9613 33.5832 39.3434 32.8544 40.1075Z" fill="url(#paint9_linear_5091_1582)" fill-opacity="0.465517"/>
</g>
<path d="M32.8544 53.7647L24.111 62.9329C21.8064 65.3493 23.5964 69.2368 27.0137 69.2368C28.1181 69.2368 29.1716 68.792 29.9165 68.0109L34.7899 62.9007C35.1735 62.4985 35.835 62.4985 36.2187 62.9007L41.0778 67.996C41.8316 68.7865 42.8979 69.2368 44.0157 69.2368C47.4742 69.2368 49.2859 65.3025 46.9536 62.857L38.2825 53.7647C37.5538 53.0005 36.5611 52.6184 35.5685 52.6184C34.5758 52.6184 33.5832 53.0005 32.8544 53.7647Z" fill="url(#paint10_linear_5091_1582)" fill-opacity="0.399487"/>
</g>
</g>
</g>
<defs>
<linearGradient id="paint0_linear_5091_1582" x1="47.0208" y1="45.2595" x2="10.651" y2="63.5718" gradientUnits="userSpaceOnUse">
<stop stop-color="#EC7A01"/>
<stop offset="0.25" stop-color="#EE8306"/>
<stop offset="0.5" stop-color="#F18C0A"/>
<stop offset="0.75" stop-color="#D27C0B"/>
<stop offset="1" stop-color="#B46D0C"/>
</linearGradient>
<linearGradient id="paint1_linear_5091_1582" x1="29.1683" y1="42.0176" x2="31.0736" y2="53.5725" gradientUnits="userSpaceOnUse">
<stop stop-color="#FFB12C"/>
<stop offset="0.25" stop-color="#F69516"/>
<stop offset="0.5" stop-color="#EC7A01"/>
<stop offset="0.75" stop-color="#F69516"/>
<stop offset="1" stop-color="#FFB12C"/>
</linearGradient>
<linearGradient id="paint2_linear_5091_1582" x1="54.7252" y1="43.5528" x2="15.6255" y2="45.2622" gradientUnits="userSpaceOnUse">
<stop stop-opacity="0"/>
<stop offset="0.5" stop-opacity="0.0328336"/>
<stop offset="1" stop-opacity="0.0656673"/>
</linearGradient>
<linearGradient id="paint3_linear_5091_1582" x1="58.7186" y1="29.0687" x2="19.3368" y2="39.4215" gradientUnits="userSpaceOnUse">
<stop stop-color="#EC7A01"/>
<stop offset="0.25" stop-color="#EE8306"/>
<stop offset="0.5" stop-color="#F18C0A"/>
<stop offset="0.75" stop-color="#D27C0B"/>
<stop offset="1" stop-color="#B46D0C"/>
</linearGradient>
<linearGradient id="paint4_linear_5091_1582" x1="41.9131" y1="22.6442" x2="41.3751" y2="34.3428" gradientUnits="userSpaceOnUse">
<stop stop-color="#FFB12C"/>
<stop offset="0.25" stop-color="#F69516"/>
<stop offset="0.5" stop-color="#EC7A01"/>
<stop offset="0.75" stop-color="#F69516"/>
<stop offset="1" stop-color="#FFB12C"/>
</linearGradient>
<linearGradient id="paint5_linear_5091_1582" x1="16.9211" y1="28.0501" x2="55.5677" y2="24.4326" gradientUnits="userSpaceOnUse">
<stop stop-opacity="0"/>
<stop offset="0.5" stop-opacity="0.0328336"/>
<stop offset="1" stop-opacity="0.0656673"/>
</linearGradient>
<linearGradient id="paint6_linear_5091_1582" x1="47.8621" y1="9.39379" x2="10.2389" y2="24.9695" gradientUnits="userSpaceOnUse">
<stop stop-color="#EC7A01"/>
<stop offset="0.25" stop-color="#EE8306"/>
<stop offset="0.5" stop-color="#F18C0A"/>
<stop offset="0.75" stop-color="#D27C0B"/>
<stop offset="1" stop-color="#B46D0C"/>
</linearGradient>
<linearGradient id="paint7_linear_5091_1582" x1="30.2723" y1="4.58482" x2="31.3189" y2="16.249" gradientUnits="userSpaceOnUse">
<stop stop-color="#FFB12C"/>
<stop offset="0.25" stop-color="#F69516"/>
<stop offset="0.5" stop-color="#EC7A01"/>
<stop offset="0.75" stop-color="#F69516"/>
<stop offset="1" stop-color="#FFB12C"/>
</linearGradient>
<linearGradient id="paint8_linear_5091_1582" x1="26.3603" y1="40.3661" x2="43.8403" y2="44.3207" gradientUnits="userSpaceOnUse">
<stop stop-color="#4C8B0C"/>
<stop offset="0.5" stop-color="#66A40B"/>
<stop offset="1" stop-color="#80BE0B"/>
</linearGradient>
<linearGradient id="paint9_linear_5091_1582" x1="26.3603" y1="46.5003" x2="43.8403" y2="50.455" gradientUnits="userSpaceOnUse">
<stop stop-color="#4C8B0C"/>
<stop offset="0.5" stop-color="#66A40B"/>
<stop offset="1" stop-color="#80BE0B"/>
</linearGradient>
<linearGradient id="paint10_linear_5091_1582" x1="26.3603" y1="60.1575" x2="43.8403" y2="64.1121" gradientUnits="userSpaceOnUse">
<stop stop-color="#4C8B0C"/>
<stop offset="0.5" stop-color="#66A40B"/>
<stop offset="1" stop-color="#80BE0B"/>
</linearGradient>
<clipPath id="clip0_5091_1582">
<rect width="72" height="72" fill="white"/>
</clipPath>
</defs>
</svg>
