<svg width="72" height="72" viewBox="0 0 72 72" fill="none" xmlns="http://www.w3.org/2000/svg">
<g clip-path="url(#clip0_5091_2158)">
<mask id="mask0_5091_2158" style="mask-type:luminance" maskUnits="userSpaceOnUse" x="0" y="0" width="72" height="72">
<path d="M72 0H0V72H72V0Z" fill="white"/>
</mask>
<g mask="url(#mask0_5091_2158)">
<mask id="mask1_5091_2158" style="mask-type:luminance" maskUnits="userSpaceOnUse" x="0" y="0" width="72" height="72">
<path d="M0.25 0.25H71.75V71.75H0.25V0.25Z" fill="white"/>
</mask>
<g mask="url(#mask1_5091_2158)">
<path d="M8.76463 65.3397C8.94107 66.0477 9.39499 66.6689 10.086 66.9032C12.3787 67.6814 17.0391 68.192 24.8808 66.8642C36.1051 64.9638 50.0032 60.7099 55.08 55.6664C55.6577 55.0924 55.8176 54.2433 55.6207 53.453L53.9003 46.5496C41.4121 50.1342 15.1299 59.8279 6.87915 57.7738L8.76463 65.3397Z" fill="url(#paint0_linear_5091_2158)"/>
<path d="M6.98549 58.2004C7.74794 61.26 18.8661 61.1233 31.8187 57.8953C44.7712 54.6675 54.6532 49.5707 53.8907 46.5112C53.1283 43.4518 42.0101 43.5884 29.0577 46.8163C16.1051 50.0442 6.22306 55.1411 6.98549 58.2004Z" fill="url(#paint1_linear_5091_2158)"/>
<path d="M16.2299 50.94L16.3099 51.261C16.4652 51.8841 16.8294 52.4444 17.3964 52.7459C23.467 55.9745 35.4858 54.0864 47.7059 50.0961C49.39 49.5461 51.8616 48.3793 53.2444 47.7954C53.7231 47.194 53.9214 46.635 53.7978 46.1391C53.0866 43.2853 42.0099 43.5885 29.0574 46.8164C24.2292 48.0196 19.8224 49.4594 16.2299 50.94Z" fill="url(#paint2_linear_5091_2158)"/>
<path d="M17.0703 35.9814C17.0304 36.7424 17.3085 37.497 17.9446 37.9169C19.9446 39.2373 24.2494 40.9505 32.0494 41.9206C43.2971 43.3194 57.7582 43.3693 64.1143 40.3127C64.8768 39.946 65.3104 39.155 65.3547 38.3101L65.6944 31.8245C52.7052 31.5724 24.748 32.9579 17.4438 28.8497L17.0703 35.9814Z" fill="url(#paint3_linear_5091_2158)"/>
<path d="M17.4226 29.2588C17.2687 32.196 27.9505 35.1431 41.2807 35.8413C54.6113 36.5396 65.5424 34.7245 65.6963 31.7873C65.8501 28.8501 55.1684 25.9028 41.8379 25.2046C28.5076 24.5063 17.5764 26.3216 17.4226 29.2588Z" fill="url(#paint4_linear_5091_2158)"/>
<path d="M17.4226 29.2587C17.3959 29.7691 17.697 30.2798 18.2818 30.7789C19.7506 31.0885 22.3993 31.7623 24.1573 31.981C36.9142 33.5673 49.0726 33.1285 54.4159 28.8013C54.9149 28.3972 55.1656 27.7778 55.1992 27.1364L55.2165 26.8061C51.4076 26.0378 46.807 25.4648 41.8379 25.2046C28.5076 24.5063 17.5764 26.3215 17.4226 29.2587Z" fill="url(#paint5_linear_5091_2158)"/>
<path d="M7.0247 13.9808L8.02338 21.0901C8.14436 21.9513 8.67138 22.7099 9.48896 23.0064C12.1322 23.9647 17.3459 25.0511 25.2022 24.5147C38.0276 23.6391 50.9752 21.0837 55.3951 15.817C55.808 15.325 55.9359 14.6693 55.8466 14.0334L54.8547 6.9727C42.056 9.2025 14.9784 16.6205 7.0247 13.9808Z" fill="url(#paint6_linear_5091_2158)"/>
<path d="M7.01964 13.9441C7.4288 16.8568 18.4765 17.7126 31.6954 15.8556C44.9143 13.9987 55.2986 10.1322 54.8895 7.21958C54.4803 4.30695 43.4326 3.45116 30.2137 5.30809C16.9948 7.16502 6.61049 11.0315 7.01964 13.9441Z" fill="url(#paint7_linear_5091_2158)"/>
<path d="M32.9546 26.0532L24.49 34.9291C22.259 37.2685 23.9919 41.032 27.3002 41.032C28.3694 41.032 29.3893 40.6013 30.1104 39.8452L34.8285 34.8979C35.1998 34.5086 35.8403 34.5086 36.2117 34.8979L40.9159 39.8308C41.6456 40.5961 42.6779 41.032 43.76 41.032C47.1082 41.032 48.8621 37.2231 46.6042 34.8556L38.2096 26.0532C37.5042 25.3134 36.5431 24.9435 35.5822 24.9435C34.6211 24.9435 33.6602 25.3134 32.9546 26.0532Z" fill="url(#paint8_linear_5091_2158)"/>
<g opacity="0.5">
<path d="M32.9546 39.9766L24.49 48.8524C22.259 51.1918 23.9919 54.9553 27.3002 54.9553C28.3694 54.9553 29.3893 54.5247 30.1104 53.7685L34.8285 48.8212C35.1998 48.4319 35.8403 48.4319 36.2117 48.8212L40.9159 53.7541C41.6456 54.5194 42.6779 54.9553 43.76 54.9553C47.1082 54.9553 48.8621 51.1465 46.6042 48.7789L38.2096 39.9766C37.5042 39.2368 36.5431 38.8669 35.5822 38.8669C34.6211 38.8669 33.6602 39.2368 32.9546 39.9766Z" fill="url(#paint9_linear_5091_2158)" fill-opacity="0.251724"/>
</g>
<path d="M32.9546 53.1982L24.49 62.074C22.259 64.4134 23.9919 68.177 27.3002 68.177C28.3694 68.177 29.3893 67.7463 30.1104 66.9902L34.8285 62.0429C35.1998 61.6536 35.8403 61.6536 36.2117 62.0429L40.9159 66.9758C41.6456 67.7411 42.6779 68.177 43.76 68.177C47.1082 68.177 48.8621 64.3681 46.6042 62.0006L38.2096 53.1982C37.5042 52.4584 36.5431 52.0885 35.5822 52.0885C34.6211 52.0885 33.6602 52.4584 32.9546 53.1982Z" fill="url(#paint10_linear_5091_2158)" fill-opacity="0.243692"/>
</g>
</g>
</g>
<defs>
<linearGradient id="paint0_linear_5091_2158" x1="46.5365" y1="48.7796" x2="12.6873" y2="68.9855" gradientUnits="userSpaceOnUse">
<stop stop-color="#EC7A01"/>
<stop offset="0.25" stop-color="#EE8306"/>
<stop offset="0.5" stop-color="#F18C0A"/>
<stop offset="0.75" stop-color="#D27C0B"/>
<stop offset="1" stop-color="#B46D0C"/>
</linearGradient>
<linearGradient id="paint1_linear_5091_2158" x1="29.0727" y1="46.8876" x2="31.7142" y2="57.9132" gradientUnits="userSpaceOnUse">
<stop stop-color="#FFB12C"/>
<stop offset="0.25" stop-color="#F69516"/>
<stop offset="0.5" stop-color="#EC7A01"/>
<stop offset="0.75" stop-color="#F69516"/>
<stop offset="1" stop-color="#FFB12C"/>
</linearGradient>
<linearGradient id="paint2_linear_5091_2158" x1="53.8577" y1="46.5971" x2="16.2207" y2="50.9602" gradientUnits="userSpaceOnUse">
<stop stop-opacity="0"/>
<stop offset="0.5" stop-opacity="0.01"/>
<stop offset="1" stop-opacity="0.01"/>
</linearGradient>
<linearGradient id="paint3_linear_5091_2158" x1="58.0233" y1="31.3649" x2="19.7468" y2="40.7967" gradientUnits="userSpaceOnUse">
<stop stop-color="#EC7A01"/>
<stop offset="0.25" stop-color="#EE8306"/>
<stop offset="0.5" stop-color="#F18C0A"/>
<stop offset="0.75" stop-color="#D27C0B"/>
<stop offset="1" stop-color="#B46D0C"/>
</linearGradient>
<linearGradient id="paint4_linear_5091_2158" x1="41.8517" y1="24.8944" x2="41.1557" y2="36.2106" gradientUnits="userSpaceOnUse">
<stop stop-color="#FFB12C"/>
<stop offset="0.25" stop-color="#F69516"/>
<stop offset="0.5" stop-color="#EC7A01"/>
<stop offset="0.75" stop-color="#F69516"/>
<stop offset="1" stop-color="#FFB12C"/>
</linearGradient>
<linearGradient id="paint5_linear_5091_2158" x1="17.5786" y1="29.753" x2="55.0425" y2="26.8301" gradientUnits="userSpaceOnUse">
<stop stop-opacity="0"/>
<stop offset="0.5" stop-opacity="0.01"/>
<stop offset="1" stop-opacity="0.01"/>
</linearGradient>
<linearGradient id="paint6_linear_5091_2158" x1="47.3732" y1="8.95492" x2="11.5981" y2="25.5136" gradientUnits="userSpaceOnUse">
<stop stop-color="#EC7A01"/>
<stop offset="0.25" stop-color="#EE8306"/>
<stop offset="0.5" stop-color="#F18C0A"/>
<stop offset="0.75" stop-color="#D27C0B"/>
<stop offset="1" stop-color="#B46D0C"/>
</linearGradient>
<linearGradient id="paint7_linear_5091_2158" x1="30.168" y1="5.0009" x2="31.643" y2="16.2421" gradientUnits="userSpaceOnUse">
<stop stop-color="#FFB12C"/>
<stop offset="0.25" stop-color="#F69516"/>
<stop offset="0.5" stop-color="#EC7A01"/>
<stop offset="0.75" stop-color="#F69516"/>
<stop offset="1" stop-color="#FFB12C"/>
</linearGradient>
<linearGradient id="paint8_linear_5091_2158" x1="26.6676" y1="32.2422" x2="43.5903" y2="36.0707" gradientUnits="userSpaceOnUse">
<stop stop-color="#4C8B0C"/>
<stop offset="0.5" stop-color="#66A40B"/>
<stop offset="1" stop-color="#80BE0B"/>
</linearGradient>
<linearGradient id="paint9_linear_5091_2158" x1="26.6676" y1="46.1655" x2="43.5903" y2="49.994" gradientUnits="userSpaceOnUse">
<stop stop-color="#4C8B0C"/>
<stop offset="0.5" stop-color="#66A40B"/>
<stop offset="1" stop-color="#80BE0B"/>
</linearGradient>
<linearGradient id="paint10_linear_5091_2158" x1="26.6676" y1="59.3871" x2="43.5903" y2="63.2157" gradientUnits="userSpaceOnUse">
<stop stop-color="#4C8B0C"/>
<stop offset="0.5" stop-color="#66A40B"/>
<stop offset="1" stop-color="#80BE0B"/>
</linearGradient>
<clipPath id="clip0_5091_2158">
<rect width="72" height="72" fill="white"/>
</clipPath>
</defs>
</svg>
