<svg width="72" height="72" viewBox="0 0 72 72" fill="none" xmlns="http://www.w3.org/2000/svg">
<g clip-path="url(#clip0_5091_6002)">
<mask id="mask0_5091_6002" style="mask-type:luminance" maskUnits="userSpaceOnUse" x="0" y="0" width="72" height="72">
<path d="M72 0H0V72H72V0Z" fill="white"/>
</mask>
<g mask="url(#mask0_5091_6002)">
<mask id="mask1_5091_6002" style="mask-type:luminance" maskUnits="userSpaceOnUse" x="0" y="0" width="72" height="72">
<path d="M0.25 0.25H71.75V71.75H0.25V0.25Z" fill="white"/>
</mask>
<g mask="url(#mask1_5091_6002)">
<path d="M5.85632 55.7765C5.95505 56.5377 6.35424 57.2417 7.04795 57.5702C9.34969 58.6607 14.1579 59.758 22.5129 59.3191C34.4718 58.691 49.5095 55.927 55.4247 51.2709C56.0978 50.7409 56.3677 49.873 56.2575 49.0233L55.2948 41.6013C41.8113 43.8365 13.1746 50.7869 4.80127 47.6423L5.85632 55.7765Z" fill="url(#paint0_linear_5091_6002)"/>
<path d="M4.86087 48.101C5.28751 51.3903 16.9222 52.5924 30.8478 50.7862C44.7732 48.98 55.7162 44.8494 55.2895 41.5601C54.8629 38.2709 43.2282 37.0686 29.3029 38.8748C15.3772 40.6811 4.43424 44.8118 4.86087 48.101Z" fill="url(#paint1_linear_5091_6002)"/>
<path d="M15.3993 41.6323L15.444 41.9774C15.531 42.6474 15.8437 43.2769 16.3997 43.6605C22.3528 47.7687 35.1406 47.2495 48.3928 44.558C50.2192 44.187 52.9431 43.2667 54.4587 42.8238C55.0317 42.2532 55.3065 41.6932 55.2374 41.16C54.8394 38.0918 43.2279 37.0687 29.3024 38.8749C24.1116 39.5482 19.3324 40.5197 15.3993 41.6323Z" fill="url(#paint2_linear_5091_6002)"/>
<path d="M16.1664 33.5981C16.1443 34.3995 16.4562 35.1858 17.1361 35.6108C19.2737 36.9475 23.8452 38.6373 32.0731 39.4549C43.9378 40.6338 59.1469 40.3107 65.7518 36.9312C66.5441 36.5258 66.9796 35.6828 67.0042 34.793L67.193 27.9638C53.5267 28.036 24.162 30.2192 16.374 26.0885L16.1664 33.5981Z" fill="url(#paint3_linear_5091_6002)"/>
<path d="M16.3623 26.5193C16.2767 29.6121 27.5865 32.4339 41.6231 32.822C55.6601 33.2101 67.1084 31.0175 67.1939 27.9246C67.2794 24.8318 55.9697 22.0097 41.9328 21.6216C27.8961 21.2335 16.4478 23.4264 16.3623 26.5193Z" fill="url(#paint4_linear_5091_6002)"/>
<path d="M16.3623 26.5192C16.3474 27.0566 16.6773 27.5858 17.3053 28.0955C18.8579 28.3829 21.6609 29.0228 23.5153 29.2071C36.9721 30.544 49.7469 29.7668 55.2536 25.0774C55.7679 24.6395 56.0154 23.9816 56.0341 23.3062L56.0437 22.9584C52.0182 22.2494 47.1653 21.7663 41.9328 21.6216C27.8961 21.2335 16.4478 23.4263 16.3623 26.5192Z" fill="url(#paint5_linear_5091_6002)"/>
<path d="M5.457 12.2744L6.01313 19.806C6.0805 20.7183 6.58118 21.5511 7.41884 21.9189C10.127 23.1078 15.5245 24.6091 23.8081 24.5899C37.3312 24.5587 51.0988 22.7727 56.1029 17.5503C56.5702 17.0625 56.7499 16.3831 56.7002 15.7094L56.1479 8.22934C42.5591 9.68388 13.6231 15.5958 5.457 12.2744Z" fill="url(#paint6_linear_5091_6002)"/>
<path d="M5.45405 12.2356C5.68189 15.3212 17.2191 16.9843 31.2231 15.9502C45.2271 14.9162 56.3949 11.5765 56.1671 8.4909C55.9392 5.40527 44.402 3.74217 30.398 4.77623C16.394 5.81029 5.22621 9.14993 5.45405 12.2356Z" fill="url(#paint7_linear_5091_6002)"/>
<path d="M38.2791 53.9743L47.1834 44.6374C49.5304 42.1764 47.7074 38.2174 44.2272 38.2174C43.1025 38.2174 42.0297 38.6704 41.2711 39.4659L36.3079 44.6701C35.9173 45.0797 35.2436 45.0797 34.8528 44.6701L29.9043 39.481C29.1366 38.676 28.0507 38.2174 26.9124 38.2174C23.3902 38.2174 21.5452 42.2241 23.9204 44.7147L32.7511 53.9743C33.4932 54.7525 34.5042 55.1417 35.515 55.1417C36.526 55.1417 37.5369 54.7525 38.2791 53.9743Z" fill="url(#paint8_linear_5091_6002)"/>
<path d="M38.2791 66.6395L47.1834 57.3025C49.5304 54.8416 47.7074 50.8825 44.2272 50.8825C43.1025 50.8825 42.0297 51.3356 41.2711 52.131L36.3079 57.3353C35.9173 57.7449 35.2436 57.7449 34.8528 57.3353L29.9043 52.1462C29.1366 51.3411 28.0507 50.8825 26.9124 50.8825C23.3902 50.8825 21.5452 54.8893 23.9204 57.3798L32.7511 66.6395C33.4932 67.4177 34.5042 67.8068 35.515 67.8068C36.526 67.8068 37.5369 67.4177 38.2791 66.6395Z" fill="url(#paint9_linear_5091_6002)" fill-opacity="0.1"/>
</g>
</g>
</g>
<defs>
<linearGradient id="paint0_linear_5091_6002" x1="47.3301" y1="43.0408" x2="9.51435" y2="60.0607" gradientUnits="userSpaceOnUse">
<stop stop-color="#EC7A01"/>
<stop offset="0.25" stop-color="#EE8306"/>
<stop offset="0.5" stop-color="#F18C0A"/>
<stop offset="0.75" stop-color="#D27C0B"/>
<stop offset="1" stop-color="#B46D0C"/>
</linearGradient>
<linearGradient id="paint1_linear_5091_6002" x1="29.3099" y1="38.9512" x2="30.7364" y2="50.7922" gradientUnits="userSpaceOnUse">
<stop stop-color="#FFB12C"/>
<stop offset="0.25" stop-color="#F69516"/>
<stop offset="0.5" stop-color="#EC7A01"/>
<stop offset="0.75" stop-color="#F69516"/>
<stop offset="1" stop-color="#FFB12C"/>
</linearGradient>
<linearGradient id="paint2_linear_5091_6002" x1="55.2445" y1="41.6458" x2="15.3871" y2="41.6523" gradientUnits="userSpaceOnUse">
<stop stop-opacity="0"/>
<stop offset="0.5" stop-opacity="0.01"/>
<stop offset="1" stop-opacity="0.0158649"/>
</linearGradient>
<linearGradient id="paint3_linear_5091_6002" x1="59.1139" y1="27.6797" x2="19.1062" y2="38.5926" gradientUnits="userSpaceOnUse">
<stop stop-color="#EC7A01"/>
<stop offset="0.25" stop-color="#EE8306"/>
<stop offset="0.5" stop-color="#F18C0A"/>
<stop offset="0.75" stop-color="#D27C0B"/>
<stop offset="1" stop-color="#B46D0C"/>
</linearGradient>
<linearGradient id="paint4_linear_5091_6002" x1="41.9393" y1="21.2951" x2="41.5012" y2="33.2136" gradientUnits="userSpaceOnUse">
<stop stop-color="#FFB12C"/>
<stop offset="0.25" stop-color="#F69516"/>
<stop offset="0.5" stop-color="#EC7A01"/>
<stop offset="0.75" stop-color="#F69516"/>
<stop offset="1" stop-color="#FFB12C"/>
</linearGradient>
<linearGradient id="paint5_linear_5091_6002" x1="16.5391" y1="27.0349" x2="55.8614" y2="22.9881" gradientUnits="userSpaceOnUse">
<stop stop-opacity="0"/>
<stop offset="0.5" stop-opacity="0.01"/>
<stop offset="1" stop-opacity="0.0158649"/>
</linearGradient>
<linearGradient id="paint6_linear_5091_6002" x1="48.1575" y1="9.79209" x2="9.4592" y2="24.6966" gradientUnits="userSpaceOnUse">
<stop stop-color="#EC7A01"/>
<stop offset="0.25" stop-color="#EE8306"/>
<stop offset="0.5" stop-color="#F18C0A"/>
<stop offset="0.75" stop-color="#D27C0B"/>
<stop offset="1" stop-color="#B46D0C"/>
</linearGradient>
<linearGradient id="paint7_linear_5091_6002" x1="30.3713" y1="4.45061" x2="31.1413" y2="16.3523" gradientUnits="userSpaceOnUse">
<stop stop-color="#FFB12C"/>
<stop offset="0.25" stop-color="#F69516"/>
<stop offset="0.5" stop-color="#EC7A01"/>
<stop offset="0.75" stop-color="#F69516"/>
<stop offset="1" stop-color="#FFB12C"/>
</linearGradient>
<linearGradient id="paint8_linear_5091_6002" x1="44.8927" y1="47.4639" x2="27.0909" y2="43.4364" gradientUnits="userSpaceOnUse">
<stop stop-color="#B1310E"/>
<stop offset="0.5" stop-color="#C63F11"/>
<stop offset="1" stop-color="#DB4D13"/>
</linearGradient>
<linearGradient id="paint9_linear_5091_6002" x1="44.8927" y1="60.129" x2="27.0909" y2="56.1016" gradientUnits="userSpaceOnUse">
<stop stop-color="#B1310E"/>
<stop offset="0.5" stop-color="#C63F11"/>
<stop offset="1" stop-color="#DB4D13"/>
</linearGradient>
<clipPath id="clip0_5091_6002">
<rect width="72" height="72" fill="white"/>
</clipPath>
</defs>
</svg>
