<svg width="72" height="72" viewBox="0 0 72 72" fill="none" xmlns="http://www.w3.org/2000/svg">
<g clip-path="url(#clip0_5091_5330)">
<mask id="mask0_5091_5330" style="mask-type:luminance" maskUnits="userSpaceOnUse" x="0" y="0" width="72" height="72">
<path d="M72 0H0V72H72V0Z" fill="white"/>
</mask>
<g mask="url(#mask0_5091_5330)">
<mask id="mask1_5091_5330" style="mask-type:luminance" maskUnits="userSpaceOnUse" x="0" y="0" width="72" height="72">
<path d="M0.25 0.25H71.75V71.75H0.25V0.25Z" fill="white"/>
</mask>
<g mask="url(#mask1_5091_5330)">
<path d="M8.28669 63.9578C8.45194 64.6745 8.8984 65.3086 9.59065 65.5571C11.8876 66.3821 16.5756 66.9794 24.5026 65.7805C35.849 64.0645 49.9319 60.024 55.1382 55.031C55.7307 54.4628 55.907 53.6098 55.7225 52.8098L54.1112 45.8215C41.461 49.2125 14.8 58.5157 6.52075 56.2989L8.28669 63.9578Z" fill="url(#paint0_linear_5091_5330)"/>
<path d="M6.62037 56.7308C7.33448 59.8279 18.5425 59.8876 31.6544 56.8643C44.7661 53.8411 54.8164 48.8798 54.1023 45.7827C53.3882 42.6857 42.1801 42.6258 29.0685 45.649C15.9566 48.6723 5.90628 53.6338 6.62037 56.7308Z" fill="url(#paint1_linear_5091_5330)"/>
<path d="M16.0665 49.5774L16.1414 49.9023C16.2869 50.5331 16.644 51.1043 17.2101 51.4182C23.2711 54.7801 35.418 53.0905 47.805 49.2859C49.5122 48.7615 52.0239 47.6294 53.428 47.0655C53.9212 46.4678 54.1309 45.908 54.0152 45.406C53.3491 42.5171 42.1799 42.6259 29.0681 45.6491C24.1806 46.776 19.7135 48.1489 16.0665 49.5774Z" fill="url(#paint2_linear_5091_5330)"/>
<path d="M16.9299 35.6245C16.8926 36.3918 17.1758 37.1514 17.8186 37.5722C19.8397 38.8956 24.1854 40.6061 32.0517 41.5543C43.3949 42.9214 57.9722 42.9167 64.3676 39.8113C65.1348 39.4388 65.5689 38.6399 65.6103 37.788L65.928 31.2491C52.8338 31.0445 24.6577 32.5476 17.2793 28.4342L16.9299 35.6245Z" fill="url(#paint3_linear_5091_5330)"/>
<path d="M17.2595 28.8467C17.1156 31.8081 27.8941 34.7381 41.334 35.3911C54.774 36.0442 65.7859 34.173 65.9298 31.2117C66.0737 28.2503 55.2951 25.32 41.8551 24.667C28.4152 24.0139 17.4034 25.8854 17.2595 28.8467Z" fill="url(#paint4_linear_5091_5330)"/>
<path d="M17.2595 28.8466C17.2345 29.3612 17.54 29.8748 18.1313 30.3757C19.6131 30.6822 22.2856 31.3513 24.0585 31.5651C36.9237 33.1155 49.178 32.6269 54.5476 28.2446C55.0491 27.8354 55.2994 27.2101 55.3308 26.5634L55.347 26.2304C51.5047 25.4705 46.865 24.9104 41.8551 24.667C28.4152 24.0139 17.4034 25.8852 17.2595 28.8466Z" fill="url(#paint5_linear_5091_5330)"/>
<path d="M6.76921 13.7147L7.70369 20.8908C7.8169 21.7601 8.34042 22.5301 9.16151 22.8373C11.8161 23.83 17.0603 24.978 24.9847 24.5171C37.9213 23.7647 50.9981 21.3203 55.5067 16.0565C55.9278 15.5648 56.0634 14.9051 55.9798 14.2632L55.0517 7.13617C42.1283 9.25385 14.7596 16.4562 6.76921 13.7147Z" fill="url(#paint6_linear_5091_5330)"/>
<path d="M6.7645 13.6776C7.14736 16.6177 18.2745 17.5924 31.6176 15.8548C44.9607 14.1173 55.4671 10.3254 55.0843 7.38535C54.7014 4.44534 43.5743 3.47059 30.2312 5.20816C16.888 6.94573 6.38165 10.7376 6.7645 13.6776Z" fill="url(#paint7_linear_5091_5330)"/>
<path d="M38.1838 42.6508L46.7163 33.7037C48.9652 31.3456 47.2184 27.5518 43.8835 27.5518C42.8058 27.5518 41.7777 27.9859 41.0508 28.7482L36.2949 33.7351C35.9206 34.1276 35.275 34.1276 34.9005 33.7351L30.1586 28.7627C29.423 27.9913 28.3825 27.5518 27.2916 27.5518C23.9166 27.5518 22.1486 31.3912 24.4246 33.7778L32.8866 42.6508C33.5977 43.3965 34.5665 43.7694 35.5351 43.7694C36.5039 43.7694 37.4725 43.3965 38.1838 42.6508Z" fill="url(#paint8_linear_5091_5330)"/>
<path d="M38.1838 62.9728L46.7163 54.0258C48.9652 51.6676 47.2184 47.8738 43.8835 47.8738C42.8058 47.8738 41.7777 48.308 41.0508 49.0702L36.2949 54.0572C35.9206 54.4496 35.275 54.4496 34.9005 54.0572L30.1586 49.0847C29.423 48.3133 28.3825 47.8738 27.2916 47.8738C23.9166 47.8738 22.1486 51.7133 24.4246 54.0998L32.8866 62.9728C33.5977 63.7186 34.5665 64.0914 35.5351 64.0914C36.5039 64.0914 37.4725 63.7186 38.1838 62.9728Z" fill="url(#paint9_linear_5091_5330)" fill-opacity="0.322222"/>
<path d="M38.1838 43.6242L46.7163 34.6771C48.9652 32.319 47.2184 28.5252 43.8835 28.5252C42.8058 28.5252 41.7777 28.9593 41.0508 29.7216L36.2949 34.7085C35.9206 35.101 35.275 35.101 34.9005 34.7085L30.1586 29.7361C29.423 28.9646 28.3825 28.5252 27.2916 28.5252C23.9166 28.5252 22.1486 32.3646 24.4246 34.7512L32.8866 43.6242C33.5977 44.3699 34.5665 44.7428 35.5351 44.7428C36.5039 44.7428 37.4725 44.3699 38.1838 43.6242Z" fill="url(#paint10_linear_5091_5330)" fill-opacity="0.488889"/>
</g>
</g>
</g>
<defs>
<linearGradient id="paint0_linear_5091_5330" x1="46.6499" y1="47.9382" x2="12.1754" y2="67.7019" gradientUnits="userSpaceOnUse">
<stop stop-color="#EC7A01"/>
<stop offset="0.25" stop-color="#EE8306"/>
<stop offset="0.5" stop-color="#F18C0A"/>
<stop offset="0.75" stop-color="#D27C0B"/>
<stop offset="1" stop-color="#B46D0C"/>
</linearGradient>
<linearGradient id="paint1_linear_5091_5330" x1="29.0823" y1="45.7212" x2="31.5487" y2="56.8805" gradientUnits="userSpaceOnUse">
<stop stop-color="#FFB12C"/>
<stop offset="0.25" stop-color="#F69516"/>
<stop offset="0.5" stop-color="#EC7A01"/>
<stop offset="0.75" stop-color="#F69516"/>
<stop offset="1" stop-color="#FFB12C"/>
</linearGradient>
<linearGradient id="paint2_linear_5091_5330" x1="54.0674" y1="45.8686" x2="16.0568" y2="49.5976" gradientUnits="userSpaceOnUse">
<stop stop-opacity="0"/>
<stop offset="0.5" stop-opacity="0.0104699"/>
<stop offset="1" stop-opacity="0.0209397"/>
</linearGradient>
<linearGradient id="paint3_linear_5091_5330" x1="58.1937" y1="30.8151" x2="19.6463" y2="40.4683" gradientUnits="userSpaceOnUse">
<stop stop-color="#EC7A01"/>
<stop offset="0.25" stop-color="#EE8306"/>
<stop offset="0.5" stop-color="#F18C0A"/>
<stop offset="0.75" stop-color="#D27C0B"/>
<stop offset="1" stop-color="#B46D0C"/>
</linearGradient>
<linearGradient id="paint4_linear_5091_5330" x1="41.8678" y1="24.3543" x2="41.2093" y2="35.7638" gradientUnits="userSpaceOnUse">
<stop stop-color="#FFB12C"/>
<stop offset="0.25" stop-color="#F69516"/>
<stop offset="0.5" stop-color="#EC7A01"/>
<stop offset="0.75" stop-color="#F69516"/>
<stop offset="1" stop-color="#FFB12C"/>
</linearGradient>
<linearGradient id="paint5_linear_5091_5330" x1="17.4186" y1="29.3443" x2="55.1717" y2="26.2552" gradientUnits="userSpaceOnUse">
<stop stop-opacity="0"/>
<stop offset="0.5" stop-opacity="0.0104699"/>
<stop offset="1" stop-opacity="0.0209397"/>
</linearGradient>
<linearGradient id="paint6_linear_5091_5330" x1="47.4904" y1="9.05826" x2="11.262" y2="25.3859" gradientUnits="userSpaceOnUse">
<stop stop-color="#EC7A01"/>
<stop offset="0.25" stop-color="#EE8306"/>
<stop offset="0.5" stop-color="#F18C0A"/>
<stop offset="0.75" stop-color="#D27C0B"/>
<stop offset="1" stop-color="#B46D0C"/>
</linearGradient>
<linearGradient id="paint7_linear_5091_5330" x1="30.1882" y1="4.89805" x2="31.5609" y2="16.2439" gradientUnits="userSpaceOnUse">
<stop stop-color="#FFB12C"/>
<stop offset="0.25" stop-color="#F69516"/>
<stop offset="0.5" stop-color="#EC7A01"/>
<stop offset="0.75" stop-color="#F69516"/>
<stop offset="1" stop-color="#FFB12C"/>
</linearGradient>
<linearGradient id="paint8_linear_5091_5330" x1="44.5212" y1="36.4122" x2="27.4628" y2="32.5529" gradientUnits="userSpaceOnUse">
<stop stop-color="#B1310E"/>
<stop offset="0.5" stop-color="#C63F11"/>
<stop offset="1" stop-color="#DB4D13"/>
</linearGradient>
<linearGradient id="paint9_linear_5091_5330" x1="44.5212" y1="56.7342" x2="27.4628" y2="52.875" gradientUnits="userSpaceOnUse">
<stop stop-color="#B1310E"/>
<stop offset="0.5" stop-color="#C63F11"/>
<stop offset="1" stop-color="#DB4D13"/>
</linearGradient>
<linearGradient id="paint10_linear_5091_5330" x1="44.5212" y1="37.3856" x2="27.4628" y2="33.5263" gradientUnits="userSpaceOnUse">
<stop stop-color="#B1310E"/>
<stop offset="0.5" stop-color="#C63F11"/>
<stop offset="1" stop-color="#DB4D13"/>
</linearGradient>
<clipPath id="clip0_5091_5330">
<rect width="72" height="72" fill="white"/>
</clipPath>
</defs>
</svg>
