<svg width="72" height="72" viewBox="0 0 72 72" fill="none" xmlns="http://www.w3.org/2000/svg">
<path d="M62.6544 32.7814L62.733 30.5432C62.8952 25.9243 57.5854 23.2225 53.9471 26.0727L49.2209 29.775C44.9583 16.7681 26.5368 16.8357 22.0731 29.775L18.0717 26.4754C14.4918 23.5234 9.10398 26.1805 9.26679 30.8176L9.33574 32.7814C9.8399 47.1409 18.0717 58.5212 35.9951 58.5212C53.9185 58.5212 62.1503 47.1409 62.6544 32.7814Z" fill="#FA8D1B"/>
<rect x="33.5269" y="58.1985" width="6.58129" height="11.5173" fill="#FA8D1B"/>
<ellipse cx="16.9336" cy="15.9319" rx="4.11331" ry="4.11331" fill="#FA8D1B"/>
<ellipse cx="28.4541" cy="6.39749" rx="4.11331" ry="4.11331" fill="#FA8D1B"/>
<ellipse cx="55.0659" cy="15.9319" rx="4.11331" ry="4.11331" fill="#FA8D1B"/>
<ellipse cx="42.4878" cy="6.39749" rx="4.11331" ry="4.11331" fill="#FA8D1B"/>
</svg>
