<svg width="72" height="72" viewBox="0 0 72 72" fill="none" xmlns="http://www.w3.org/2000/svg">
<g clip-path="url(#clip0_5012_38092)">
<mask id="mask0_5012_38092" style="mask-type:luminance" maskUnits="userSpaceOnUse" x="0" y="0" width="72" height="72">
<path d="M72 0H0V72H72V0Z" fill="white"/>
</mask>
<g mask="url(#mask0_5012_38092)">
<mask id="mask1_5012_38092" style="mask-type:luminance" maskUnits="userSpaceOnUse" x="-1" y="-1" width="74" height="74">
<path d="M-0.25 -0.25H72.25V72.25H-0.25V-0.25Z" fill="white"/>
</mask>
<g mask="url(#mask1_5012_38092)">
<path d="M1.53052 35.995C1.53052 55.0287 16.9606 70.4587 35.9944 70.4587C55.0282 70.4587 70.458 55.0287 70.458 35.995C70.458 16.9612 55.0282 1.53122 35.9944 1.53122C16.9606 1.53122 1.53052 16.9612 1.53052 35.995Z" fill="url(#paint0_linear_5012_38092)"/>
<path d="M6.79077 36.0843C6.79077 52.2704 19.9124 65.3919 36.0985 65.3919C52.2846 65.3919 65.406 52.2704 65.406 36.0843C65.406 19.8982 52.2846 6.77668 36.0985 6.77668C19.9124 6.77668 6.79077 19.8982 6.79077 36.0843Z" fill="url(#paint1_linear_5012_38092)"/>
</g>
</g>
</g>
<defs>
<linearGradient id="paint0_linear_5012_38092" x1="54.416" y1="64.9988" x2="15.1001" y2="9.01047" gradientUnits="userSpaceOnUse">
<stop stop-color="#E25A01" stop-opacity="0.688462"/>
<stop offset="0.5" stop-color="#F09701" stop-opacity="0.688462"/>
<stop offset="1" stop-color="#FFD400" stop-opacity="0.688462"/>
</linearGradient>
<linearGradient id="paint1_linear_5012_38092" x1="51.764" y1="60.7488" x2="18.3302" y2="13.1369" gradientUnits="userSpaceOnUse">
<stop stop-color="#E25A01"/>
<stop offset="0.5" stop-color="#F09701"/>
<stop offset="1" stop-color="#FFD400"/>
</linearGradient>
<clipPath id="clip0_5012_38092">
<rect width="72" height="72" fill="white"/>
</clipPath>
</defs>
</svg>
