<svg width="72" height="72" viewBox="0 0 72 72" fill="none" xmlns="http://www.w3.org/2000/svg">
<g clip-path="url(#clip0_5012_38227)">
<mask id="mask0_5012_38227" style="mask-type:luminance" maskUnits="userSpaceOnUse" x="0" y="0" width="72" height="72">
<path d="M72 0H0V72H72V0Z" fill="white"/>
</mask>
<g mask="url(#mask0_5012_38227)">
<mask id="mask1_5012_38227" style="mask-type:luminance" maskUnits="userSpaceOnUse" x="-1" y="-1" width="74" height="74">
<path d="M-0.25 -0.25H72.25V72.25H-0.25V-0.25Z" fill="white"/>
</mask>
<g mask="url(#mask1_5012_38227)">
<path d="M0.0654297 35.9992C0.0654297 55.8448 16.1537 71.9329 35.9994 71.9329C55.845 71.9329 71.933 55.8448 71.933 35.9992C71.933 16.1535 55.845 0.0654144 35.9994 0.0654144C16.1537 0.0654144 0.0654297 16.1535 0.0654297 35.9992Z" fill="url(#paint0_linear_5012_38227)"/>
<path d="M11.8777 36.0696C11.8777 49.4368 22.7141 60.2731 36.0813 60.2731C49.4485 60.2731 60.2847 49.4368 60.2847 36.0696C60.2847 22.7024 49.4485 11.8661 36.0813 11.8661C22.7141 11.8661 11.8777 22.7024 11.8777 36.0696Z" fill="url(#paint1_linear_5012_38227)"/>
</g>
</g>
</g>
<defs>
<linearGradient id="paint0_linear_5012_38227" x1="55.2067" y1="66.2402" x2="14.2138" y2="7.86368" gradientUnits="userSpaceOnUse">
<stop stop-color="#E25A01" stop-opacity="0.511538"/>
<stop offset="0.5" stop-color="#F09701" stop-opacity="0.511538"/>
<stop offset="1" stop-color="#FFD400" stop-opacity="0.511538"/>
</linearGradient>
<linearGradient id="paint1_linear_5012_38227" x1="49.0186" y1="56.4387" x2="21.4075" y2="17.1187" gradientUnits="userSpaceOnUse">
<stop stop-color="#E25A01"/>
<stop offset="0.5" stop-color="#F09701"/>
<stop offset="1" stop-color="#FFD400"/>
</linearGradient>
<clipPath id="clip0_5012_38227">
<rect width="72" height="72" fill="white"/>
</clipPath>
</defs>
</svg>
