<svg width="72" height="72" viewBox="0 0 72 72" fill="none" xmlns="http://www.w3.org/2000/svg">
<g clip-path="url(#clip0_5012_38377)">
<mask id="mask0_5012_38377" style="mask-type:luminance" maskUnits="userSpaceOnUse" x="0" y="0" width="72" height="72">
<path d="M72 0H0V72H72V0Z" fill="white"/>
</mask>
<g mask="url(#mask0_5012_38377)">
<mask id="mask1_5012_38377" style="mask-type:luminance" maskUnits="userSpaceOnUse" x="-1" y="-1" width="74" height="74">
<path d="M-0.25 -0.25H72.25V72.25H-0.25V-0.25Z" fill="white"/>
</mask>
<g mask="url(#mask1_5012_38377)">
<path d="M0.499512 35.9979C0.499512 55.603 16.3927 71.496 35.9978 71.496C55.6028 71.496 71.4957 55.603 71.4957 35.9979C71.4957 16.3929 55.6028 0.499863 35.9978 0.499863C16.3927 0.499863 0.499512 16.3929 0.499512 35.9979Z" fill="url(#paint0_linear_5012_38377)"/>
<path d="M10.1758 36.0745C10.1758 50.3849 21.7768 61.9858 36.0871 61.9858C50.3975 61.9858 61.9982 50.3849 61.9982 36.0745C61.9982 21.7642 50.3975 10.1633 36.0871 10.1633C21.7768 10.1633 10.1758 21.7642 10.1758 36.0745Z" fill="url(#paint1_linear_5012_38377)"/>
</g>
</g>
</g>
<defs>
<linearGradient id="paint0_linear_5012_38377" x1="54.9722" y1="65.8723" x2="14.4763" y2="8.20358" gradientUnits="userSpaceOnUse">
<stop stop-color="#E25A01" stop-opacity="0.326923"/>
<stop offset="0.5" stop-color="#F09701" stop-opacity="0.326923"/>
<stop offset="1" stop-color="#FFD400" stop-opacity="0.326923"/>
</linearGradient>
<linearGradient id="paint1_linear_5012_38377" x1="49.9372" y1="57.8808" x2="20.3779" y2="15.7865" gradientUnits="userSpaceOnUse">
<stop stop-color="#E25A01"/>
<stop offset="0.5" stop-color="#F09701"/>
<stop offset="1" stop-color="#FFD400"/>
</linearGradient>
<clipPath id="clip0_5012_38377">
<rect width="72" height="72" fill="white"/>
</clipPath>
</defs>
</svg>
