<svg width="72" height="72" viewBox="0 0 72 72" fill="none" xmlns="http://www.w3.org/2000/svg">
<g clip-path="url(#clip0_5012_38347)">
<mask id="mask0_5012_38347" style="mask-type:luminance" maskUnits="userSpaceOnUse" x="0" y="0" width="72" height="72">
<path d="M72 0H0V72H72V0Z" fill="white"/>
</mask>
<g mask="url(#mask0_5012_38347)">
<mask id="mask1_5012_38347" style="mask-type:luminance" maskUnits="userSpaceOnUse" x="-1" y="-1" width="74" height="74">
<path d="M-0.25 -0.25H72.25V72.25H-0.25V-0.25Z" fill="white"/>
</mask>
<g mask="url(#mask1_5012_38347)">
<path d="M0.372314 35.9983C0.372314 55.6738 16.3227 71.624 35.9982 71.624C55.6737 71.624 71.6238 55.6738 71.6238 35.9983C71.6238 16.3228 55.6737 0.372574 35.9982 0.372574C16.3227 0.372574 0.372314 16.3228 0.372314 35.9983Z" fill="url(#paint0_linear_5012_38347)"/>
<path d="M10.7795 36.0728C10.7795 50.0486 22.1093 61.3782 36.0851 61.3782C50.0608 61.3782 61.3904 50.0486 61.3904 36.0728C61.3904 22.097 50.0608 10.7674 36.0851 10.7674C22.1093 10.7674 10.7795 22.097 10.7795 36.0728Z" fill="url(#paint1_linear_5012_38347)"/>
</g>
</g>
</g>
<defs>
<linearGradient id="paint0_linear_5012_38347" x1="55.0409" y1="65.9801" x2="14.3994" y2="8.10399" gradientUnits="userSpaceOnUse">
<stop stop-color="#E25A01" stop-opacity="0.357692"/>
<stop offset="0.5" stop-color="#F09701" stop-opacity="0.357692"/>
<stop offset="1" stop-color="#FFD400" stop-opacity="0.357692"/>
</linearGradient>
<linearGradient id="paint1_linear_5012_38347" x1="49.6113" y1="57.3692" x2="20.7432" y2="16.2591" gradientUnits="userSpaceOnUse">
<stop stop-color="#E25A01"/>
<stop offset="0.5" stop-color="#F09701"/>
<stop offset="1" stop-color="#FFD400"/>
</linearGradient>
<clipPath id="clip0_5012_38347">
<rect width="72" height="72" fill="white"/>
</clipPath>
</defs>
</svg>
