<svg width="72" height="72" viewBox="0 0 72 72" fill="none" xmlns="http://www.w3.org/2000/svg">
<g clip-path="url(#clip0_5012_38407)">
<mask id="mask0_5012_38407" style="mask-type:luminance" maskUnits="userSpaceOnUse" x="0" y="0" width="72" height="72">
<path d="M72 0H0V72H72V0Z" fill="white"/>
</mask>
<g mask="url(#mask0_5012_38407)">
<mask id="mask1_5012_38407" style="mask-type:luminance" maskUnits="userSpaceOnUse" x="-1" y="-1" width="74" height="74">
<path d="M-0.25 -0.25H72.25V72.25H-0.25V-0.25Z" fill="white"/>
</mask>
<g mask="url(#mask1_5012_38407)">
<path d="M0.702393 35.9973C0.702393 55.4899 16.5045 71.2918 35.997 71.2918C55.4896 71.2918 71.2914 55.4899 71.2914 35.9973C71.2914 16.5048 55.4896 0.702866 35.997 0.702866C16.5045 0.702866 0.702393 16.5048 0.702393 35.9973Z" fill="url(#paint0_linear_5012_38407)"/>
<path d="M9.11646 36.0776C9.11646 50.9749 21.1933 63.0517 36.0907 63.0517C50.988 63.0517 63.0646 50.9749 63.0646 36.0776C63.0646 21.1802 50.988 9.10349 36.0907 9.10349C21.1933 9.10349 9.11646 21.1802 9.11646 36.0776Z" fill="url(#paint1_linear_5012_38407)"/>
</g>
</g>
</g>
<defs>
<linearGradient id="paint0_linear_5012_38407" x1="54.8626" y1="65.7003" x2="14.5991" y2="8.3624" gradientUnits="userSpaceOnUse">
<stop stop-color="#E25A01" stop-opacity="0.288462"/>
<stop offset="0.5" stop-color="#F09701" stop-opacity="0.288462"/>
<stop offset="1" stop-color="#FFD400" stop-opacity="0.288462"/>
</linearGradient>
<linearGradient id="paint1_linear_5012_38407" x1="50.5088" y1="58.7783" x2="19.7371" y2="14.9573" gradientUnits="userSpaceOnUse">
<stop stop-color="#E25A01"/>
<stop offset="0.5" stop-color="#F09701"/>
<stop offset="1" stop-color="#FFD400"/>
</linearGradient>
<clipPath id="clip0_5012_38407">
<rect width="72" height="72" fill="white"/>
</clipPath>
</defs>
</svg>
