<svg width="72" height="72" viewBox="0 0 72 72" fill="none" xmlns="http://www.w3.org/2000/svg">
<g clip-path="url(#clip0_5012_38557)">
<mask id="mask0_5012_38557" style="mask-type:luminance" maskUnits="userSpaceOnUse" x="0" y="0" width="72" height="72">
<path d="M72 0H0V72H72V0Z" fill="white"/>
</mask>
<g mask="url(#mask0_5012_38557)">
<mask id="mask1_5012_38557" style="mask-type:luminance" maskUnits="userSpaceOnUse" x="-1" y="-1" width="74" height="74">
<path d="M-0.25 -0.25H72.25V72.25H-0.25V-0.25Z" fill="white"/>
</mask>
<g mask="url(#mask1_5012_38557)">
<path d="M3.22437 35.9901C3.22437 54.0852 17.8936 68.7543 35.9887 68.7543C54.0838 68.7543 68.7527 54.0852 68.7527 35.9901C68.7527 17.895 54.0838 3.22592 35.9887 3.22592C17.8936 3.22592 3.22437 17.895 3.22437 35.9901Z" fill="url(#paint0_linear_5012_38557)"/>
<path d="M6.06665 36.0864C6.06665 52.6738 19.5136 66.1206 36.101 66.1206C52.6885 66.1206 66.1351 52.6738 66.1351 36.0864C66.1351 19.4989 52.6885 6.05212 36.101 6.05212C19.5136 6.05212 6.06665 19.4989 6.06665 36.0864Z" fill="url(#paint1_linear_5012_38557)"/>
</g>
</g>
</g>
<defs>
<linearGradient id="paint0_linear_5012_38557" x1="53.5018" y1="63.5636" x2="16.1248" y2="10.3363" gradientUnits="userSpaceOnUse">
<stop stop-color="#E25A01" stop-opacity="0.0961538"/>
<stop offset="0.5" stop-color="#F09701" stop-opacity="0.0961538"/>
<stop offset="1" stop-color="#FFD400" stop-opacity="0.0961538"/>
</linearGradient>
<linearGradient id="paint1_linear_5012_38557" x1="52.1549" y1="61.3625" x2="17.8922" y2="12.5701" gradientUnits="userSpaceOnUse">
<stop stop-color="#E25A01"/>
<stop offset="0.5" stop-color="#F09701"/>
<stop offset="1" stop-color="#FFD400"/>
</linearGradient>
<clipPath id="clip0_5012_38557">
<rect width="72" height="72" fill="white"/>
</clipPath>
</defs>
</svg>
