<svg width="72" height="72" viewBox="0 0 72 72" fill="none" xmlns="http://www.w3.org/2000/svg">
<g clip-path="url(#clip0_2759_8677)">
<mask id="mask0_2759_8677" style="mask-type:luminance" maskUnits="userSpaceOnUse" x="0" y="0" width="72" height="72">
<path d="M72 0H0V72H72V0Z" fill="white"/>
</mask>
<g mask="url(#mask0_2759_8677)">
<mask id="mask1_2759_8677" style="mask-type:luminance" maskUnits="userSpaceOnUse" x="-1" y="-1" width="74" height="74">
<path d="M-0.25 -0.25H72.25V72.25H-0.25V-0.25Z" fill="white"/>
</mask>
<g mask="url(#mask1_2759_8677)">
<path d="M27.6058 10.8814C29.8344 12.4593 31.8515 14.4186 33.5556 16.743C42.0288 28.3003 39.5621 44.5137 28.0461 52.9566C25.5864 54.7598 22.9128 56.0627 20.1465 56.8842C18.751 57.2986 18.2823 59.1364 19.5152 59.9103C29.157 65.9623 41.8856 65.9045 51.5957 58.7856C64.3128 49.4621 67.0369 31.5575 57.6798 18.7946C50.6573 9.21596 38.8254 5.25581 27.9826 7.81773C27.7648 7.86925 27.5772 7.9574 27.4196 8.07292C26.5529 8.70848 26.6012 10.1701 27.6058 10.8814Z" fill="url(#paint0_linear_2759_8677)"/>
</g>
</g>
</g>
<defs>
<linearGradient id="paint0_linear_2759_8677" x1="17.9184" y1="11.744" x2="50.0319" y2="56.1067" gradientUnits="userSpaceOnUse">
<stop stop-color="#F39229"/>
<stop offset="0.22" stop-color="#F19224"/>
<stop offset="0.45" stop-color="#EE9320"/>
<stop offset="0.72" stop-color="#EE891C"/>
<stop offset="1" stop-color="#EE7F18"/>
</linearGradient>
<clipPath id="clip0_2759_8677">
<rect width="72" height="72" fill="white"/>
</clipPath>
</defs>
</svg>
