<svg width="72" height="72" viewBox="0 0 72 72" fill="none" xmlns="http://www.w3.org/2000/svg">
<g clip-path="url(#clip0_2759_8495)">
<mask id="mask0_2759_8495" style="mask-type:luminance" maskUnits="userSpaceOnUse" x="0" y="0" width="72" height="72">
<path d="M72 0H0V72H72V0Z" fill="white"/>
</mask>
<g mask="url(#mask0_2759_8495)">
<mask id="mask1_2759_8495" style="mask-type:luminance" maskUnits="userSpaceOnUse" x="-1" y="-1" width="74" height="74">
<path d="M-0.25 -0.25H72.25V72.25H-0.25V-0.25Z" fill="white"/>
</mask>
<g mask="url(#mask1_2759_8495)">
<path d="M26.0428 11.7259C28.349 13.1381 30.4713 14.941 32.3084 17.1254C41.443 27.9865 40.0748 44.1697 29.2525 53.2715C26.941 55.2155 24.3851 56.6792 21.7058 57.6734C20.3543 58.1748 20.0123 60.0217 21.2816 60.7051C31.2078 66.0493 43.7812 65.1528 52.9063 57.4783C64.8574 47.4271 66.3684 29.5559 56.281 17.5618C48.7104 8.56017 36.758 5.42736 26.2132 8.6738C26.0014 8.73907 25.8218 8.83855 25.6737 8.96308C24.8592 9.64823 25.0033 11.0892 26.0428 11.7259Z" fill="url(#paint0_linear_2759_8495)"/>
</g>
</g>
</g>
<defs>
<linearGradient id="paint0_linear_2759_8495" x1="16.5276" y1="13.217" x2="51.1845" y2="54.9344" gradientUnits="userSpaceOnUse">
<stop stop-color="#F39027"/>
<stop offset="0.22" stop-color="#F09023"/>
<stop offset="0.45" stop-color="#EE901F"/>
<stop offset="0.72" stop-color="#EE881B"/>
<stop offset="1" stop-color="#EE7F18"/>
</linearGradient>
<clipPath id="clip0_2759_8495">
<rect width="72" height="72" fill="white"/>
</clipPath>
</defs>
</svg>
