<svg width="72" height="72" viewBox="0 0 72 72" fill="none" xmlns="http://www.w3.org/2000/svg">
<g clip-path="url(#clip0_2759_8560)">
<mask id="mask0_2759_8560" style="mask-type:luminance" maskUnits="userSpaceOnUse" x="0" y="0" width="72" height="72">
<path d="M72 0H0V72H72V0Z" fill="white"/>
</mask>
<g mask="url(#mask0_2759_8560)">
<mask id="mask1_2759_8560" style="mask-type:luminance" maskUnits="userSpaceOnUse" x="-1" y="-1" width="74" height="74">
<path d="M-0.25 -0.25H72.25V72.25H-0.25V-0.25Z" fill="white"/>
</mask>
<g mask="url(#mask1_2759_8560)">
<path d="M25.1655 12.9715C27.4681 14.2265 29.6116 15.8689 31.4976 17.8946C40.8751 27.967 40.341 43.7071 30.3046 53.0511C28.161 55.0468 25.7572 56.5893 23.2109 57.6831C21.9265 58.2348 21.6855 60.0401 22.9482 60.64C32.8228 65.3306 44.9562 63.8478 53.4187 55.9692C64.5019 45.6506 65.0918 28.2687 54.7361 17.1456C46.964 8.79768 35.2352 6.34777 25.1814 10.0073C24.9794 10.0809 24.8103 10.186 24.673 10.3138C23.9177 11.0172 24.1277 12.4058 25.1655 12.9715Z" fill="url(#paint0_linear_2759_8560)"/>
</g>
</g>
</g>
<defs>
<linearGradient id="paint0_linear_2759_8560" x1="16.0231" y1="14.8807" x2="51.6268" y2="53.5896" gradientUnits="userSpaceOnUse">
<stop stop-color="#EE811A"/>
<stop offset="0.22" stop-color="#EE8119"/>
<stop offset="0.45" stop-color="#EE8119"/>
<stop offset="0.72" stop-color="#EE8018"/>
<stop offset="1" stop-color="#EE7F18"/>
</linearGradient>
<clipPath id="clip0_2759_8560">
<rect width="72" height="72" fill="white"/>
</clipPath>
</defs>
</svg>
