<svg width="72" height="72" viewBox="0 0 72 72" fill="none" xmlns="http://www.w3.org/2000/svg">
<g clip-path="url(#clip0_5029_53237)">
<mask id="mask0_5029_53237" style="mask-type:luminance" maskUnits="userSpaceOnUse" x="0" y="0" width="72" height="72">
<path d="M72 0H0V72H72V0Z" fill="white"/>
</mask>
<g mask="url(#mask0_5029_53237)">
<mask id="mask1_5029_53237" style="mask-type:luminance" maskUnits="userSpaceOnUse" x="-1" y="-1" width="74" height="74">
<path d="M-0.25 -0.25H72.25V72.25H-0.25V-0.25Z" fill="white"/>
</mask>
<g mask="url(#mask1_5029_53237)">
<path d="M-0.10498 35.9993C-0.10498 55.9395 16.0598 72.1043 36 72.1043C55.9403 72.1043 72.105 55.9395 72.105 35.9993C72.105 16.059 55.9403 -0.105728 36 -0.105728C16.0598 -0.105728 -0.10498 16.059 -0.10498 35.9993Z" fill="url(#paint0_linear_5029_53237)"/>
<path d="M3.84216 35.9994C3.84216 53.7597 18.2397 68.1572 36 68.1572C53.7603 68.1572 68.1579 53.7597 68.1579 35.9994C68.1579 18.239 53.7603 3.84149 36 3.84149C18.2397 3.84149 3.84216 18.239 3.84216 35.9994Z" fill="url(#paint1_linear_5029_53237)"/>
<path d="M29.9206 28.1933C29.9206 26.9838 30.8609 26.0034 32.0208 26.0034C33.1807 26.0034 34.121 26.9838 34.121 28.1933V39.5776C34.121 41.1578 33.7838 42.4889 33.1096 43.5707C32.4446 44.6525 31.5222 45.4664 30.3422 46.0119C29.1714 46.5576 27.8228 46.8304 26.2962 46.8304C24.7696 46.8304 23.4117 46.5576 22.2222 46.0119C21.0423 45.4664 20.115 44.6525 19.4407 43.5707C18.7758 42.4889 18.4434 41.1578 18.4434 39.5776V28.2006C18.4434 26.9871 19.3868 26.0034 20.5506 26.0034C21.7144 26.0034 22.6578 26.9871 22.6578 28.2006V39.5776C22.6578 40.4993 22.803 41.2522 23.0934 41.8353C23.3836 42.4186 23.8003 42.8465 24.3436 43.1194C24.8962 43.3922 25.5469 43.5284 26.2962 43.5284C27.0642 43.5284 27.715 43.3922 28.249 43.1194C28.7921 42.8465 29.2042 42.4186 29.4852 41.8353C29.7754 41.2522 29.9206 40.4993 29.9206 39.5776V28.1933Z" fill="#EEB82E" fill-opacity="0.6"/>
<path d="M45.145 41.6559L49.312 27.5978C49.5931 26.6498 50.4336 26.0034 51.385 26.0034C52.8891 26.0034 53.937 27.5602 53.4256 29.0353L48.1682 44.2007C47.6866 45.5904 46.3801 46.4789 44.9663 46.3788L45.145 41.6559ZM38.9331 26.0034C39.8807 26.0034 40.7174 26.6475 40.9965 27.5917L45.145 41.6559L44.9663 46.3788C43.7723 46.4787 42.6621 45.7319 42.2571 44.5564L36.9013 29.0161C36.3957 27.5493 37.4382 26.0034 38.9331 26.0034Z" fill="#EEB82E" fill-opacity="0.6"/>
<path d="M29.9206 28.1128C29.9206 26.9529 30.8609 26.0127 32.0208 26.0127C33.1807 26.0127 34.121 26.9529 34.121 28.1128V39.0303C34.121 40.5458 33.7838 41.8223 33.1096 42.8597C32.4446 43.8971 31.5222 44.6777 30.3422 45.2008C29.1714 45.7241 27.8228 45.9858 26.2962 45.9858C24.7696 45.9858 23.4117 45.7241 22.2222 45.2008C21.0423 44.6777 20.115 43.8971 19.4407 42.8597C18.7758 41.8223 18.4434 40.5458 18.4434 39.0303V28.1199C18.4434 26.9561 19.3868 26.0127 20.5506 26.0127C21.7144 26.0127 22.6578 26.9561 22.6578 28.1199V39.0303C22.6578 39.9143 22.803 40.6363 23.0934 41.1955C23.3836 41.7548 23.8003 42.1652 24.3436 42.4269C24.8962 42.6885 25.5469 42.8191 26.2962 42.8191C27.0642 42.8191 27.715 42.6885 28.249 42.4269C28.7921 42.1652 29.2042 41.7548 29.4852 41.1955C29.7754 40.6363 29.9206 39.9143 29.9206 39.0303V28.1128Z" fill="#FFF3D7"/>
<path d="M45.145 41.0234L49.312 27.5417C49.5931 26.6326 50.4336 26.0127 51.385 26.0127C52.8891 26.0127 53.937 27.5056 53.4256 28.9203L48.1682 43.4639C47.6866 44.7966 46.3801 45.6487 44.9663 45.5526L45.145 41.0234ZM38.9331 26.0127C39.8807 26.0127 40.7174 26.6304 40.9965 27.5359L45.145 41.0234L44.9663 45.5526C43.7723 45.6485 42.6621 44.9323 42.2571 43.805L36.9013 28.9019C36.3957 27.4953 37.4382 26.0127 38.9331 26.0127Z" fill="#FFF3D7"/>
</g>
</g>
</g>
<defs>
<linearGradient id="paint0_linear_5029_53237" x1="50.3874" y1="53.5868" x2="16.9415" y2="12.5948" gradientUnits="userSpaceOnUse">
<stop stop-color="#EF6D0F" stop-opacity="0.186316"/>
<stop offset="0.5" stop-color="#EE931F" stop-opacity="0.186316"/>
<stop offset="1" stop-color="#EEB82E" stop-opacity="0.186316"/>
</linearGradient>
<linearGradient id="paint1_linear_5029_53237" x1="48.8145" y1="51.6641" x2="19.0251" y2="15.1536" gradientUnits="userSpaceOnUse">
<stop stop-color="#EF6D0F"/>
<stop offset="0.5" stop-color="#EE931F"/>
<stop offset="1" stop-color="#EEB82E"/>
</linearGradient>
<clipPath id="clip0_5029_53237">
<rect width="72" height="72" fill="white"/>
</clipPath>
</defs>
</svg>
