<svg width="72" height="72" viewBox="0 0 72 72" fill="none" xmlns="http://www.w3.org/2000/svg">
<g clip-path="url(#clip0_5029_53129)">
<mask id="mask0_5029_53129" style="mask-type:luminance" maskUnits="userSpaceOnUse" x="0" y="0" width="72" height="72">
<path d="M72 0H0V72H72V0Z" fill="white"/>
</mask>
<g mask="url(#mask0_5029_53129)">
<mask id="mask1_5029_53129" style="mask-type:luminance" maskUnits="userSpaceOnUse" x="-1" y="-1" width="74" height="74">
<path d="M-0.25 -0.25H72.25V72.25H-0.25V-0.25Z" fill="white"/>
</mask>
<g mask="url(#mask1_5029_53129)">
<path d="M-0.10498 35.9993C-0.10498 55.9395 16.0598 72.1043 36 72.1043C55.9403 72.1043 72.105 55.9395 72.105 35.9993C72.105 16.059 55.9403 -0.105728 36 -0.105728C16.0598 -0.105728 -0.10498 16.059 -0.10498 35.9993Z" fill="url(#paint0_linear_5029_53129)"/>
<path d="M10.2635 35.9995C10.2635 50.2134 21.7862 61.736 36 61.736C50.2139 61.736 61.7365 50.2134 61.7365 35.9995C61.7365 21.7856 50.2139 10.263 36 10.263C21.7862 10.263 10.2635 21.7856 10.2635 35.9995Z" fill="url(#paint1_linear_5029_53129)"/>
<path d="M29.5729 27.9638C29.5729 26.5513 30.567 25.4064 31.7932 25.4064C33.0195 25.4064 34.0136 26.5513 34.0136 27.9638V41.2588C34.0136 43.1042 33.6571 44.6587 32.9443 45.9221C32.2413 47.1854 31.2661 48.1359 30.0185 48.773C28.7809 49.4102 27.3551 49.7288 25.7412 49.7288C24.1273 49.7288 22.6916 49.4102 21.4341 48.773C20.1867 48.1359 19.2064 47.1854 18.4935 45.9221C17.7907 44.6587 17.4392 43.1042 17.4392 41.2588V27.9724C17.4392 26.5552 18.4365 25.4064 19.6669 25.4064C20.8972 25.4064 21.8947 26.5552 21.8947 27.9724V41.2588C21.8947 42.3352 22.0482 43.2144 22.3551 43.8954C22.6619 44.5766 23.1025 45.0764 23.6768 45.395C24.261 45.7136 24.949 45.8726 25.7412 45.8726C26.5531 45.8726 27.2412 45.7136 27.8057 45.395C28.3799 45.0764 28.8155 44.5766 29.1126 43.8954C29.4194 43.2144 29.5729 42.3352 29.5729 41.2588V27.9638Z" fill="#EEB82E" fill-opacity="0.6"/>
<path d="M45.6681 43.6859L50.0735 27.2684C50.3706 26.1614 51.2592 25.4064 52.2651 25.4064C53.8552 25.4064 54.963 27.2245 54.4224 28.9471L48.8643 46.6578C48.355 48.2807 46.9739 49.3184 45.4792 49.2014L45.6681 43.6859ZM39.1009 25.4064C40.1027 25.4064 40.9873 26.1586 41.2823 27.2612L45.6681 43.6859L45.4792 49.2014C44.2169 49.3182 43.0432 48.4459 42.615 47.0732L36.9529 28.9248C36.4184 27.2118 37.5205 25.4064 39.1009 25.4064Z" fill="#EEB82E" fill-opacity="0.6"/>
<path d="M29.5729 27.6616C29.5729 26.4354 30.567 25.4415 31.7932 25.4415C33.0195 25.4415 34.0136 26.4354 34.0136 27.6616V39.2037C34.0136 40.8058 33.6571 42.1553 32.9443 43.2521C32.2413 44.3488 31.2661 45.1741 30.0185 45.7271C28.7809 46.2803 27.3551 46.5569 25.7412 46.5569C24.1273 46.5569 22.6916 46.2803 21.4341 45.7271C20.1867 45.1741 19.2064 44.3488 18.4935 43.2521C17.7907 42.1553 17.4392 40.8058 17.4392 39.2037V27.6691C17.4392 26.4387 18.4365 25.4415 19.6669 25.4415C20.8972 25.4415 21.8947 26.4387 21.8947 27.6691V39.2037C21.8947 40.1382 22.0482 40.9014 22.3551 41.4926C22.6619 42.084 23.1025 42.5179 23.6768 42.7945C24.261 43.0711 24.949 43.2092 25.7412 43.2092C26.5531 43.2092 27.2412 43.0711 27.8057 42.7945C28.3799 42.5179 28.8155 42.084 29.1126 41.4926C29.4194 40.9014 29.5729 40.1382 29.5729 39.2037V27.6616Z" fill="#FFF3D7"/>
<path d="M45.6681 41.3107L50.0735 27.0579C50.3706 26.0968 51.2592 25.4415 52.2651 25.4415C53.8552 25.4415 54.963 27.0198 54.4224 28.5153L48.8643 43.8908C48.355 45.2997 46.9739 46.2006 45.4792 46.0991L45.6681 41.3107ZM39.1009 25.4415C40.1027 25.4415 40.9873 26.0944 41.2823 27.0517L45.6681 41.3107L45.4792 46.0991C44.2169 46.2004 43.0432 45.4432 42.615 44.2514L36.9529 28.4959C36.4184 27.0088 37.5205 25.4415 39.1009 25.4415Z" fill="#FFF3D7"/>
</g>
</g>
</g>
<defs>
<linearGradient id="paint0_linear_5029_53129" x1="50.3874" y1="53.5868" x2="16.9415" y2="12.5948" gradientUnits="userSpaceOnUse">
<stop stop-color="#EF6D0F" stop-opacity="0.249474"/>
<stop offset="0.5" stop-color="#EE931F" stop-opacity="0.249474"/>
<stop offset="1" stop-color="#EEB82E" stop-opacity="0.249474"/>
</linearGradient>
<linearGradient id="paint1_linear_5029_53129" x1="46.2557" y1="48.5362" x2="22.4147" y2="19.3162" gradientUnits="userSpaceOnUse">
<stop stop-color="#EF6D0F"/>
<stop offset="0.5" stop-color="#EE931F"/>
<stop offset="1" stop-color="#EEB82E"/>
</linearGradient>
<clipPath id="clip0_5029_53129">
<rect width="72" height="72" fill="white"/>
</clipPath>
</defs>
</svg>
