<svg width="72" height="72" viewBox="0 0 72 72" fill="none" xmlns="http://www.w3.org/2000/svg">
<g clip-path="url(#clip0_5029_53399)">
<mask id="mask0_5029_53399" style="mask-type:luminance" maskUnits="userSpaceOnUse" x="0" y="0" width="72" height="72">
<path d="M72 0H0V72H72V0Z" fill="white"/>
</mask>
<g mask="url(#mask0_5029_53399)">
<mask id="mask1_5029_53399" style="mask-type:luminance" maskUnits="userSpaceOnUse" x="-1" y="-1" width="74" height="74">
<path d="M-0.25 -0.25H72.25V72.25H-0.25V-0.25Z" fill="white"/>
</mask>
<g mask="url(#mask1_5029_53399)">
<path d="M-0.10498 35.9993C-0.10498 55.9395 16.0598 72.1043 36 72.1043C55.9403 72.1043 72.105 55.9395 72.105 35.9993C72.105 16.059 55.9403 -0.105728 36 -0.105728C16.0598 -0.105728 -0.10498 16.059 -0.10498 35.9993Z" fill="url(#paint0_linear_5029_53399)"/>
<path d="M0.356812 35.9993C0.356812 55.6845 16.3148 71.6425 36 71.6425C55.6852 71.6425 71.6432 55.6845 71.6432 35.9993C71.6432 16.3141 55.6852 0.356094 36 0.356094C16.3148 0.356094 0.356812 16.3141 0.356812 35.9993Z" fill="url(#paint1_linear_5029_53399)"/>
<path d="M30.1093 28.3682C30.1093 27.2378 31.0204 26.3216 32.1443 26.3216C33.2682 26.3216 34.1793 27.2378 34.1793 28.3682V39.0079C34.1793 40.4848 33.8525 41.7288 33.1993 42.7398C32.5549 43.7508 31.6611 44.5115 30.5177 45.0213C29.3834 45.5313 28.0766 45.7863 26.5974 45.7863C25.1182 45.7863 23.8024 45.5313 22.6498 45.0213C21.5066 44.5115 20.6081 43.7508 19.9547 42.7398C19.3105 41.7288 18.9884 40.4848 18.9884 39.0079V28.3751C18.9884 27.2409 19.9024 26.3216 21.0301 26.3216C22.1578 26.3216 23.072 27.2409 23.072 28.3751V39.0079C23.072 39.8693 23.2126 40.5729 23.494 41.1179C23.7752 41.663 24.179 42.063 24.7054 42.318C25.2408 42.573 25.8713 42.7002 26.5974 42.7002C27.3415 42.7002 27.9722 42.573 28.4896 42.318C29.0158 42.063 29.4151 41.663 29.6874 41.1179C29.9686 40.5729 30.1093 39.8693 30.1093 39.0079V28.3682Z" fill="#EEB82E" fill-opacity="0.6"/>
<path d="M44.861 40.9502L48.8987 27.8116C49.171 26.9257 49.9854 26.3216 50.9073 26.3216C52.3647 26.3216 53.3801 27.7765 52.8845 29.1551L47.7904 43.3286C47.3237 44.6274 46.0578 45.4578 44.6878 45.3642L44.861 40.9502ZM38.842 26.3216C39.7601 26.3216 40.5709 26.9235 40.8413 27.8059L44.861 40.9502L44.6878 45.3642C43.5309 45.4576 42.4552 44.7596 42.0628 43.661L36.8732 29.1372C36.3834 27.7664 37.3935 26.3216 38.842 26.3216Z" fill="#EEB82E" fill-opacity="0.6"/>
<path d="M30.1093 28.3577C30.1093 27.2338 31.0204 26.3228 32.1443 26.3228C33.2682 26.3228 34.1793 27.2338 34.1793 28.3577V38.9362C34.1793 40.4046 33.8525 41.6415 33.1993 42.6467C32.5549 43.6519 31.6611 44.4083 30.5177 44.9152C29.3834 45.4222 28.0766 45.6757 26.5974 45.6757C25.1182 45.6757 23.8024 45.4222 22.6498 44.9152C21.5066 44.4083 20.6081 43.6519 19.9547 42.6467C19.3105 41.6415 18.9884 40.4046 18.9884 38.9362V28.3645C18.9884 27.2368 19.9024 26.3228 21.0301 26.3228C22.1578 26.3228 23.072 27.2368 23.072 28.3645V38.9362C23.072 39.7928 23.2126 40.4923 23.494 41.0342C23.7752 41.5761 24.179 41.9738 24.7054 42.2274C25.2408 42.4809 25.8713 42.6074 26.5974 42.6074C27.3415 42.6074 27.9722 42.4809 28.4896 42.2274C29.0158 41.9738 29.4151 41.5761 29.6874 41.0342C29.9686 40.4923 30.1093 39.7928 30.1093 38.9362V28.3577Z" fill="#FFF3D7"/>
<path d="M44.861 40.8674L48.8987 27.8043C49.171 26.9235 49.9854 26.3228 50.9073 26.3228C52.3647 26.3228 53.3801 27.7694 52.8845 29.1401L47.7904 43.2321C47.3237 44.5235 46.0578 45.3491 44.6878 45.2561L44.861 40.8674ZM38.842 26.3228C39.7601 26.3228 40.5709 26.9213 40.8413 27.7986L44.861 40.8674L44.6878 45.2561C43.5309 45.349 42.4552 44.655 42.0628 43.5627L36.8732 29.1223C36.3834 27.7593 37.3935 26.3228 38.842 26.3228Z" fill="#FFF3D7"/>
</g>
</g>
</g>
<defs>
<linearGradient id="paint0_linear_5029_53399" x1="50.3874" y1="53.5868" x2="16.9415" y2="12.5948" gradientUnits="userSpaceOnUse">
<stop stop-color="#EF6D0F" stop-opacity="0.0915789"/>
<stop offset="0.5" stop-color="#EE931F" stop-opacity="0.0915789"/>
<stop offset="1" stop-color="#EEB82E" stop-opacity="0.0915789"/>
</linearGradient>
<linearGradient id="paint1_linear_5029_53399" x1="50.2033" y1="53.3618" x2="17.1853" y2="12.8942" gradientUnits="userSpaceOnUse">
<stop stop-color="#EF6D0F"/>
<stop offset="0.5" stop-color="#EE931F"/>
<stop offset="1" stop-color="#EEB82E"/>
</linearGradient>
<clipPath id="clip0_5029_53399">
<rect width="72" height="72" fill="white"/>
</clipPath>
</defs>
</svg>
